<?xml version="1.0" encoding="utf-8"?>
<!-- Generator: Adobe Illustrator 16.0.0, SVG Export Plug-In . SVG Version: 6.00 Build 0)  -->
<svg version="1.2" baseProfile="tiny" xmlns="http://www.w3.org/2000/svg" xmlns:xlink="http://www.w3.org/1999/xlink" x="0px"
	 y="0px" width="720px" height="540px" viewBox="60 27 720 540" xml:space="preserve">
<g id="Sea" display="none">
	<rect x="60" y="27" display="inline" fill="#CFEAF3" width="720" height="540"/>
</g>
<g id="Land">
	<path fill="#F2CF66" d="M114.174,130.882l-0.561-0.193l-0.253,0.053l-0.978,0.013l-0.328-0.066l-0.435,0.434l1.691,0.761
		l0.687,0.088l0.635-0.202l-0.04-0.459L114.174,130.882z M95.386,96.708l0.206,0.18l0.201,0.074l0.268,0.052l0.279,0.28l0.254,0.088
		l0.43-0.088l0.472-0.267l0.369-0.333l0.14-0.302l-0.193-0.42l-0.402-0.328l-0.499-0.241l-0.482-0.14l-0.441,0.086l-0.46,0.216
		l-0.328,0.359l-0.053,0.468l0.074,0.127L95.386,96.708z M98.712,129.039l-0.096-0.065l-0.04-0.062l-0.214-0.253l-0.508-0.228
		l-0.573-0.119l-0.421,0.119l-0.188-0.307l-0.246,0.114l-0.201,0.333l-0.141,0.621l-0.14,0.303l-0.175,0.28l-0.192,0.206
		l0.429,0.267l0.297,0.267l0.289,0.214l0.762,0.113l0.139-0.025l0.688-0.421l0.113-0.127l0.022-0.1l-0.035-0.241l0.013-0.101
		l0.1-0.052l0.28-0.075l0.053-0.079l0.026-0.062l0.048-0.065l0.048-0.076l0.017-0.139l-0.053-0.154L98.712,129.039z M121.808,117.15
		l-0.263,0.1l-0.28,0.014l-0.254-0.167l-0.254-0.1l-0.648,0.166l-0.319,0.008l-0.228,0.233l-0.748,0.267l-0.168,0.141l-0.113,0.175
		l-0.561,0.508l-0.192,0.241l-0.315,0.661l-0.241,0.241l-0.862,0.219l-0.219,0.013l-0.228,0.709l-0.279,0.228l-0.823,0.393
		l-0.18,0.167l-0.254,0.306l-0.127,0.227l0.027,0.193l0.176,0.087l0.752,0.101l0.201,0.101l0.446,0.28l0.215,0.065l0.276-0.065
		l0.446-0.306l0.219-0.075l0.709,0.013l0.315-0.039l0.319-0.101l0.319-0.201l0.281-0.294l0.416-0.634l0.258-0.613l0.035-0.188
		l0.101-0.14l0.75-0.214l0.621-0.485l0.601-0.749l0.394-0.836l-0.049-0.788L121.808,117.15z M337.007,75.662l-0.303,0.455
		l0.066,0.381l0.315,0.346l0.42,0.314l0.228-0.188l0.201-0.228l0.499,0.241l0.28-0.547l0.097-0.862l-0.027-0.687l-0.096-0.254
		l-0.027-0.14V74.3L337.007,75.662z M359.633,47.804l0.381,0.053l0.279,0.126v0.263l-0.433,0.407l0.153,0.166l-0.153,0.127
		l0.381,0.192l0.621,0.148l0.661-0.021l0.486-0.319l-0.346-0.28l-0.697-0.394l-0.319-0.254l-0.787-1.016l-0.301-0.188l-0.299-0.013
		l-0.074,0.354l0.127,0.442L359.633,47.804z M353.663,49.949l0.555,0.573l0.486,0.28l0.574-0.167l0.227-0.573l-0.026-0.669
		l-0.192-0.446l-0.494-0.595l-0.022-0.105l0.049-0.127l-0.049-0.263l-0.166-0.193l-0.525,0.193l-0.302,0.022l-0.267,0.065
		l-0.101,0.228l-0.065,0.192l-0.141,0.101l-0.148,0.127l-0.065,0.292l0.205,0.442L353.663,49.949z M374.383,27l-0.104,0.313
		l-0.127,0.254l-0.385,0.447l-0.087,0.188l0.065,0.141l0.302,0.066l-0.608,0.188l-0.202,0.013l0.101-0.201v-0.127l-0.446,0.035
		l-0.42,0.092l0.079,0.214l0.061,0.088l-0.161,0.026l-0.075,0.039l-0.078,0.036l-0.115,0.053l0.115,0.065l0.218,0.149l0.096,0.053
		l-0.35-0.013l-0.32-0.075l-0.24,0.049l-0.08,0.332l0.334-0.101l0.428-0.026l0.293,0.114l-0.066,0.302l-0.161-0.074l-0.101-0.04
		l-0.079,0.053l-0.087,0.193l0.175,0.008l0.395,0.14l-0.087,0.039l-0.101,0.065l-0.092,0.048l0.193,0.079l0.127,0.126l0.091,0.149
		l0.026,0.206l-0.106-0.079l-0.192-0.175l-0.096-0.052l-0.359-0.026l-0.2,0.127h-0.141l-0.053-0.149v-0.166l0.026-0.127l0.035-0.114
		l0.066-0.1l-0.215-0.013l-0.219,0.013l0.158,0.441l-0.119,0.354L371.293,31l-0.1,0.416l0.035,0.091l0.192,0.268l0.035,0.148
		l-0.048,0.105l-0.14-0.105l-0.14-0.188l-0.074-0.179l-0.207,0.24l-0.086,0.333l0.025,0.342l0.188,0.306l0.688,0.823l0.101,0.245
		l-0.52-0.206l-0.303-0.341l-0.473-0.863l-0.402,0.368l-0.105,0.048l-0.29,0.04l-0.346,0.087l-0.205-0.035l-0.254,0.139
		l-0.236,0.242l-0.167,0.228l0.263,0.152l0.727,0.114l0.306,0.167l0.115,0.275l-0.053,0.346l-0.149,0.315l-0.191,0.206l-0.128,0.047
		l-0.534,0.079v0.087l-0.354,0.495l-0.193,0.052l-0.192-0.052l-0.14,0.013l-0.061,0.206l-0.009,0.188l-0.079,0.206l-0.104,0.175
		l-0.455,0.193l0.061,0.289l0.206,0.346l0.113,0.314l-0.8,1.489l-1.532,0.254l-0.715,0.026l-0.686-0.281l0.012,0.254l-0.025,0.266
		l-0.066,0.253l-0.075,0.229l-0.381,0.608l-0.036,0.253l0.189-0.101l0.534-0.468l0.074,0.24l0.181,0.075l0.227-0.048l0.232-0.14
		l-0.066-0.079V40.59l0.039-0.039l0.027-0.153l0.096,0.192l0.166,0.022l0.166-0.013l0.141,0.079l0.087,0.188l-0.061,0.052
		l-0.105,0.04l-0.096,0.268l-0.118,0.074v0.101l0.075,0.104l0.297,0.074l0.062,0.115l0.026,0.228L365.45,42l-0.088,0.062
		l-0.192,0.192l-0.1,0.188l-0.027,0.127l-0.065,0.039l-0.236-0.065l-0.219-0.162l-0.175-0.206l-0.193-0.162l-0.28-0.039l-0.29,0.227
		l-0.118,0.42l0.014,0.455l0.113,0.32l0.447-0.254l0.635-0.087l0.459,0.149l-0.118,0.485l-0.076-0.153l-0.113-0.114l-0.166-0.092
		l-0.203-0.075l-0.254,0.281l-0.279,0.074l-0.307,0.04l-0.315,0.166l-0.253,0.368l0.771,0.201l0.206,0.447h-0.153l-0.053-0.126
		l-0.14-0.167l-0.088-0.14l-0.289,0.08l-0.385-0.026l-0.328-0.079l-0.153-0.035l-0.127,0.141l-0.227,0.135l-0.092,0.153l0.319,0.193
		h0.18l0.342-0.167l0.179,0.04l0.074,0.114l-0.113,0.087l-0.192,0.053l-0.123,0.013l-0.297,0.114l-0.263,0.201l-0.294,0.127
		l-0.367-0.149v0.215l0.014,0.126l0.087,0.048l0.192,0.039l-0.113,0.206l-0.053,0.175l0.08,0.127l0.209,0.065l-0.114,0.175
		l0.018,0.193l0.123,0.14l0.281,0.048v0.166h-0.43v0.127l0.316,0.092l0.306,0.289l0.24,0.358l0.126,0.263v0.372l-0.192,0.368
		l-0.367,0.293l-0.509,0.114l-0.241,0.021l-0.547,0.119l-0.254-0.013l-0.429-0.105l-0.245-0.021l-0.42-0.154l-0.022-0.38l0.18-0.447
		l0.188-0.315l-0.394,0.101l-0.228-0.053l-0.167-0.228l-0.213-0.394l-0.106,0.214l-0.035,0.219l0.035,0.228l0.106,0.201l-0.167,0.18
		l-0.395,0.167l-0.227,0.152l-0.087,0.215l0.188,0.166l0.268,0.14l0.14,0.189l-1.006,0.787l-0.304-0.052l-0.292-0.162l-0.255-0.232
		l-0.166-0.267l-0.123,0.066l-0.306,0.026l-0.141,0.062l-0.127,0.127l-0.047,0.079l-0.027,0.087l-0.079,0.114l0.014,0.052
		l0.012,0.127v0.153l-0.026,0.114l-0.42,0.126l-0.34,0.228l-0.202,0.014l-0.332-0.101l-0.748-0.359l-0.18-0.14l-0.315-0.328
		l-0.131,0.013l-0.047,0.315l-0.075,0.105l-0.167-0.231l-0.139-0.329l0.012-0.166l-0.432,0.206l-0.509,0.455l-0.454,0.521
		l-0.247,0.228l-0.227,0.293l-0.377,0.394l-0.372,0.18l-0.162-0.367l-0.179-0.232l-0.854-0.67l-0.281-0.152l-0.596,0.162
		l-0.013,1.12l-0.442,0.267l-0.99-0.053l-0.245,0.053l-0.127,0.188l-0.293,0.941l-0.086-0.342l-0.062-0.359L345.7,52.3l0.122-0.341
		l-0.314,0.328l-0.246,0.621l-0.289,1.183h-0.167v-0.276l-0.608,1.103l-0.181,0.583l0.219,0.447l-0.407,0.153l-0.254,0.28
		l-0.192,0.342l-0.229,0.293l-0.113,0.354l0.534,0.447l-0.346,0.267l0.166,0.202l0.167,0.052l0.192-0.092l0.188-0.162l-0.049,0.355
		l-0.157,0.241l-0.115,0.253l0.027,0.434l0.219,0.429l-0.018,0.22l-0.202,0.341l0.104,0.306l-0.192,0.556l0.088,0.127l0.333-0.062
		l0.202-0.254l0.175-0.267l0.231-0.126l0.206,0.075l0.21,0.179l0.184,0.215l0.062,0.18l-0.027,0.254l-0.101,0.507L345.1,62.35
		l0.115,0.188l0.206,0.08l0.215,0.047l0.319,0.18h0.06l0.036,0.039l0.065,0.175v0.193l-0.065,0.14l-0.062,0.088l-0.035,0.074
		l-0.026,0.307l-0.066,0.314l-0.188,0.586l-0.368,0.583l-0.051,0.207l-0.027,0.314l-0.087,0.153l-0.206,0.04h-0.342l-0.039-0.066
		l-0.14-0.328l-0.075-0.341l-0.113-0.054l-0.092,0.04l-0.035,0.035l-0.46-0.101l-0.709-0.048l-0.687,0.022l-0.428,0.126
		l-0.181-0.315l-0.372-0.18l-0.468-0.061l-1.222-0.027l-0.288,0.075l-0.341,0.219l-0.434,0.42L337.9,65.83l-0.193,0.154
		l-0.369,0.228l-0.174,0.153l-0.091,0.188l-0.04,0.207l-0.075,0.228l-0.179,0.341l-1.104,1.094l-0.166,0.407l0.062,0.368
		l0.205,0.267l0.268,0.175l0.315,0.114l1.476,0.092l0.319,0.126l0.114,0.088l0.355,0.228l0.1,0.039l0.293,0.214l0.102,0.014
		l0.267-0.127l0.127,0.039l0.154,0.319v0.39l-0.041,0.394l0.026,0.319l0.193,0.241l0.28,0.167l0.253,0.227l0.141,0.368l-0.333,0.153
		l-0.039,0.228l0.074,0.293l0.017,0.306l-0.131,0.28l-0.771,0.775l-0.193,0.241l-0.078,0.267l0.157,0.289l0.328,0.14l0.443,0.052
		l0.367,0.087l0.158,0.307l-0.879-0.294l-0.355,0.054l-0.341,0.38l-0.079,0.228l0.013,0.167l-0.026,0.14l-0.189,0.175l-0.219,0.114
		h-0.166l-0.122-0.074l-0.065-0.18l-0.215,0.319l-0.193,0.188l-0.126,0.246l-0.076,0.915l-0.086,0.38l-0.219,0.302l-0.394,0.219
		l-0.053-0.586l-0.14-0.508l-0.254-0.42l-0.416-0.341l-0.508-0.179l-0.308,0.166l-1.588,2.083l-0.376,0.202l-0.533,0.114l-0.6,0.206
		l-0.6,0.074l-0.491-0.254l-0.245,0.115l-0.263,0.052l-0.574-0.013l-0.205,0.04l-0.469,0.188l-0.178,0.04l-1.472-0.113l-0.455,0.113
		l-1.414,1.295l-0.989,0.547l-0.902-0.253l-0.381,0.214l-0.18,0.293l-0.047,0.394l0.035,0.521l-0.026,0.113l-0.101,0.188v0.118
		l0.074,0.136l0.281,0.22l0.346,0.94l-0.153-0.167l-0.281-0.56l-0.24-0.214l-0.215-0.154l-0.18-0.192l-0.092-0.303l0.421-1.296
		l-0.01-0.193L322.885,82l-0.551,0.381l-1.243,0.407l-0.508,0.215l-0.149,0.153l-0.271,0.394l-0.149,0.153l-0.639,0.495
		l-0.148,0.088l-0.268,0.066l-0.393,0.292l-0.662,0.114l-0.521,0.201l-0.302,0.039l-0.28,0.088l-0.412,0.38l-0.314,0.088
		l-0.684,0.065l-0.305-0.04l-0.369-0.175l-0.613,0.481l-0.454,0.748l-0.228,0.876v0.902l0.073,0.319l0.115,0.32l0.188,0.254
		l0.271,0.101l0.376,0.048l0.297,0.153l0.188,0.254l0.139,0.6l0.154,0.354l0.114,0.42l-0.053,0.429l-0.175,0.333l-0.192,0.202
		l-0.141,0.241l-0.062,0.459l0.062,0.42l0.141,0.403l0.506,0.813l0.281,0.281l0.127,0.179l0.04,0.268l-0.052,0.175l-0.22,0.407
		l-0.022,0.268h-0.154l-0.1-0.32l-0.074-0.148l-0.104-0.105l-0.228-0.114l-0.053,0.079v0.188l-0.188,0.547l0.039,1.576l0.162,0.875
		l0.04,0.508l-0.359,1.094l-0.022,0.241l-0.092,0.153l-0.088,0.127l-0.074,0.127l-0.18,0.608l-0.113,0.228l-0.127,0.126
		l-0.141,0.039l-0.101,0.088l-0.039,0.253l-0.153,0.42l-0.354,0.434l-1.295,1.054l-1.23,1.445l-0.32,0.258l-0.467,0.276
		l-0.508,0.104l-0.407-0.219l-0.486,0.727l-0.609,0.635l-0.113,0.175l-0.066,0.219l-0.021,0.455l-0.053,0.28l-0.135,0.192
		l-0.394,0.315l-0.674,0.701l-0.412,0.315l-0.404,0.127l-0.34,0.193l0.074,0.441l0.687,1.147l0.33,0.775l0.354,0.521l0.192,0.494
		l0.035,0.188l0.065,0.101l0.394,0.394l0.328,0.753l0.254,0.289l0.486,0.104l1.498-0.013l0.292,0.153v0.148l-1.79,0.126
		l-0.534-0.047l-0.328-0.153l-0.254-0.253l-0.254-0.395l-0.044-0.214l0.044-0.18l-0.026-0.127l-0.245-0.052l-0.175,0.091
		l-0.193,0.201l-0.149,0.215l-0.065,0.14l-0.101,0.447l-0.762,1.068l-0.507,1.129l-0.066,0.341l-0.065,1.387l-0.074,0.407
		l-0.836,1.317l-0.232,0.241l-0.228,0.066l-0.407,0.307l-0.241,0.062l-0.242-0.04l-0.315-0.201l-0.219-0.04l-0.218,0.026
		l-0.137,0.101l-0.118,0.092l-0.114,0.062l-0.254,0.039l-1.383-0.039l-0.201,0.039l-0.228,0.188l-0.219,0.04l-0.254-0.052
		l-0.192-0.1l-0.176-0.062l-0.24,0.087l-0.118,0.193l-0.148,0.542l-0.088,0.114l-0.114,0.105l-0.179,0.214l-0.154,0.267
		l-0.062,0.188l-0.092,0.079l-0.367,0.201l-0.115,0.092l-0.139,0.762l0.267,0.902l0.455,0.835l2.329,3.125l0.236,0.762l-0.047,0.292
		l-0.281,0.561l-0.087,0.289l-0.025,0.28l0.047,0.586l-0.022,0.28l-0.167,0.29l-0.188,0.153l-0.192,0.114l-0.175,0.152l-0.092,0.219
		l-0.039,0.263l-0.01,0.6l-0.091,0.188l-0.557,0.814l-0.078,0.228l0.026,0.306l0.101,0.268l0.293,0.368l0.481,1.208l0.254,0.394
		l0.192,0.228l0.188,0.328l0.127,0.38l0.127,0.88l0.774,2.21l0.052,0.521l-0.105,0.355l-0.443,0.24l-0.162,0.14l0.035,0.189
		l0.061,0.166l0.168,0.761l-0.103,1.082l-0.459,0.749l-2.311,1.729l-0.481,0.215l-0.456,0.078l-0.115-0.065l-0.219-0.293
		l-0.101-0.075l-0.254-0.014l-0.533-0.126l-0.065-0.052l-0.049-0.101l-0.074-0.087l-0.167-0.039l-0.079,0.086l0.04,0.206
		l0.101,0.213l0.091,0.141l0.776,0.609l0.279,0.307l0.342,0.48l0.166,0.319l0.123,0.701l0.158,0.188l0.254,0.039h0.328l0.459,0.176
		l0.876,0.775l0.393,0.166l1.23,0.065l0.574,0.128l0.543,0.24v-0.139l0.713,0.56l1.729,1.611l2.224,2.591l0.797,0.508l0.192,0.065
		l0.381,0.049l0.127,0.04l0.127,0.087l0.267,0.267l0.307,0.166l0.883,0.75l0.881,0.345l0.481,0.062l0.206-0.188l0.026-0.445
		l-0.017-0.242l-0.075-0.166l-0.574-0.583l-0.074-0.053l-0.074-0.42l0.074-0.342l0.206-0.166l0.301,0.141l0.101,0.14l0.08,0.126
		l0.113,0.088h0.201l0.193-0.115l0.153-0.188l0.162-0.28l0.674-0.292l0.648-0.696l1.427-1.983l0.902-2.312l0.188-0.253l0.24-0.166
		l0.193-0.014l0.42,0.026l0.176-0.065l0.219-0.228l0.113-0.061l0.188-0.054l-0.433,0.675l-0.15,0.163l-0.231,0.092l-0.229,0.035
		l-0.188,0.105l-0.08,0.254l-0.086,0.506l-0.395,0.889l-0.087,0.456l0.114,0.293l0.303-0.101l0.419-0.201l0.459-0.053l0.49,0.469
		l0.281,0.092l0.092-0.434l0.127,0.228l0.008,0.206l-0.088,0.175l-0.201,0.127l-0.228-0.026l-0.166-0.148l-0.127-0.181l-0.127-0.086
		l-0.562,0.06l-0.228,0.193l-0.086,0.303l-0.192,0.432l-0.623,0.42l-0.28,0.33l0.114,0.345l0.267,0.202l0.153,0.052l0.446-0.052
		l0.166,0.052l0.123,0.276l0.205,0.104l0.303-0.051l0.726-0.42l0.333-0.101l0.201-0.14l0.582-0.635l0.141-0.228l0.214-0.84
		l0.334-4.048l-0.054-0.627l-0.635-1.103l-0.127-0.595l0.027-0.613l0.175-0.822l0.179-0.508l0.04-0.167l0.153-0.179l0.688-0.039
		l0.148-0.062l0.014-0.368l0.052-0.193l0.136-0.1l1.234-0.7l-0.149,0.46l-0.345,0.227l-0.347,0.153l-0.149,0.228l-0.104,0.494
		l-0.263,0.153l-0.333,0.092l-0.314,0.341l0.166,0.253l-0.053,0.188l-0.139,0.18l-0.106,0.227l-0.009,0.241l0.053,0.141l0.062,0.113
		l0.026,0.14l0.06,0.052l0.268,0.368l0.039,0.078l0.088,0.126l-0.026,0.277l-0.123,0.459v0.267l0.14,0.963l-0.017,1.221l0.039,0.294
		l0.127,0.252l0.254,0.408l0.407,1.117l0.254,0.38l0.166,0.088l0.24,0.012l0.456-0.022l0.066,0.115l0.293,0.721l0.121,0.942
		l-0.021,0.495l-0.18,0.368l-0.621,0.634l-0.241,0.354l-0.442,1.221l-0.079,0.481l-0.219,0.447l-0.035,0.141l-0.446,0.787
		l-0.656,2.119l-0.044,0.359l-0.275,0.811l-0.075,0.485l0.214,0.354l-0.178,0.42l-0.709,1.116l-0.342,0.749l-0.104,0.801
		l-0.103,0.469l-0.205,0.446l-0.315,0.355l-0.661,0.406l-0.188,0.154l-0.166,0.227l-0.132,0.228l-0.136,0.206l-0.214,0.127
		l0.14-0.989l-0.092-0.499l-0.469-0.087l-0.228,0.293l-0.787,1.637l-0.092,0.087l-0.481,0.561l-0.206,0.075l-0.149-0.009
		l-0.167-0.039l-0.268-0.027l-1.51,0.306l-0.279,0.115l-0.574-0.574l-0.215,0.307l-0.114,0.661l-0.252,0.188l-0.133-0.428
		l0.079-0.141l0.201-0.587l-0.201,0.294l-0.1,0.293l-0.127,0.253l-0.281,0.166l-0.062,0.215l0.027,0.153l0.035,0.154v0.2
		l-0.087,0.215l-0.279,0.472l-0.062,0.228l-0.141,0.381l-0.345,0.268l-0.416,0.179l-0.412,0.087l-1.444-0.053l-0.333,0.127
		l-0.193,0.114l-0.202,0.027l-0.166,0.078l-0.123,0.429l-0.893,1.282l-0.596,0.587l-3.318,1.957l-0.744,0.609l-0.56,0.713
		l-0.385,0.721l-0.141,0.442l-0.047,0.473l-0.127,0.433l-0.315,0.289l-0.866,0.487l-0.788,0.608l-0.648,0.687l-1.129,1.69
		l-0.333,0.669l-0.228,0.233l-0.368,0.086l-0.402,0.141l-0.299,0.329l-0.375,0.687l-0.486,0.48l-1.816,1.235l-0.241,0.281
		l-0.28,0.455l-0.241,0.494l-0.101,0.407l0.303,1.168v0.482l-0.303,0.714l-0.153,0.228l-0.127,0.113l-0.152,0.1l-0.216,0.207
		l-0.092,0.301l0.14,0.407l0.192,0.42l0.127,0.38l-0.013,0.333l-0.175,1.063l-0.18,0.373l-0.065,0.174l-0.074,0.495l-0.126,0.105
		l-0.167,0.074l-0.113,0.181l-0.08,0.227l-0.008,0.241l0.176,0.328l0.675,0.508l0.266,0.42l1.715,1.755l0.162,0.341l0.158,0.469
		l0.341,0.406l0.814,0.635l0.673,0.674l0.53,0.901l0.026,0.827l-0.827,0.469l-0.85,0.091l-0.113,0.188l-0.026,0.495l-0.035,0.219
		l-0.205,0.394l-0.041,0.253l0.026,0.1l0.088,0.188l0.013,0.113l-0.048,0.154l-0.28,0.231l-0.078,0.127l0.113,0.495l0.434,0.635
		l0.534,0.608l0.469,0.408l1.269,0.661l0.299,0.433l1.825,1.89l0.394,0.583l1.067,2.364l0.443,1.791l0.017,1.769l-0.573,1.522
		l-0.766,0.75l-0.85,0.279l-0.91-0.179l-0.902-0.569l-0.28-0.407l-0.179-0.166h-0.268l-0.499,0.915l-0.149,0.065l-0.42,0.022
		l-0.368,0.727l-0.218,0.709l-0.022,0.84l0.161,0.877l0.373,0.852l0.583,0.836l0.639,0.6l0.708,0.456l1.003,0.481l0.433,0.126
		l0.215,0.092l0.688,0.508l0.586,0.202l0.875,0.854l0.723,0.302l0.406,0.266l0.289,0.622l0.307,0.167l1.461,0.534l2.097,1.168
		l3.353,1.576l3.708,2.018l3.266,1.502l0.368,0.24l2.389,2.098l0.127,0.188l0.102,0.066l0.367,0.481l0.027,0.112l0.1,0.102
		l0.119,0.734l0.302,0.675l0.381,0.623l1.041,1.159l1.375,0.901l0.202,0.315l0.148,0.395l1.462,1.663l0.219,0.42l0.122,0.46
		l0.045,0.508l0.14,0.493l0.341,0.396l0.837,0.761l0.459,0.709l0.404,0.902l0.292,0.928l0.117,0.889l-0.025,0.154l-0.106,0.331
		l-0.009,0.228l0.062,0.202l0.176,0.333l0.13,0.381l2.232,2.998l0.407,0.849l0.04,0.281l-0.053,0.201l-0.074,0.166l-0.047,0.215
		l-0.018,0.279l0.018,0.141l0.228,0.167l1.953,3.085l1.106,1.195l2.412,1.83l0.358,0.341l0.674,0.989l0.377,0.22l2.057,1.916
		l0.433,0.588l0.281,0.608l0.152,0.468l1.104,2.044l0.131,0.561l-0.14,0.421l-0.551,0.101v0.14l0.486,0.521l0.303,0.254l0.647,0.254
		l0.485,0.343l0.827,0.787l0.63,0.801l0.5,0.862l0.289,0.881l0.019,0.901l-0.36,0.901l-0.14,0.494l0.127,0.407l1.067,1.23
		l0.293,0.586l0.368,0.395l0.062,0.101l0.104,0.293l0.201,0.267l0.153,0.33l-0.039,0.494l-0.127,0.239l-0.161,0.167l-0.115,0.167
		l-0.017,0.28l0.434-0.114l0.188,0.289l0.091,0.84l0.18,0.38l0.228,0.181l0.289,0.127l0.333,0.174l0.227,0.194l0.228,0.253
		l0.141,0.315l-0.049,0.395l-0.092,0.18l-0.147,0.127l-0.181,0.087l-0.434,0.079l-0.201,0.101l-0.104,0.1l0.091,0.04l0.24,0.1
		l0.203,0.255l0.156,0.343l0.049,0.379l0.092,0.181l0.188-0.229l0.202-0.421l0.091-0.393l0.175-0.267l0.394-0.088l0.395,0.126
		l0.18,0.368l0.021,0.621l-0.021,0.193l-0.126,0.189l-0.334,0.292l-0.114,0.229l0.254,0.166l0.14,0.293l0.061,0.28l0.052,0.127
		l0.114,0.074l0.535,0.495l0.178-0.102l0.293-0.039l0.264,0.1l0.113,0.269l-0.022,0.827l0.022,0.254l0.307,0.461l0.42,0.301
		l0.201,0.281l-0.354,0.418l0.206,0.342l0.14,0.508l0.148,1.336l0.368,1.256l0.474,0.789l1.978,2.389l0.231,0.547l-0.074,0.391
		l-0.205,0.371l-0.101,0.508l0.079,0.229l0.376,0.709l0.105,0.434l-0.017,0.086l-0.062,0.107l-0.053,0.113v0.127l0.065,0.115
		l0.074,0.072l0.088,0.053l0.053,0.053l0.131,0.176l0.139,0.139l0.115,0.193l0.035,0.289l0.141,0.445l0.534,0.863l0.061,0.494
		l-0.087,0.207l-0.127,0.086l-0.087,0.127v0.307l0.065,0.229l0.114,0.215l0.149,0.178l0.595,0.586l0.319,0.443l0.494,0.955
		l0.133,0.201l0.429,0.52l0.062,0.221l0.065,0.516l0.092,0.193l0.883,0.801l0.193,0.293l0.062,0.188l0.04,0.469l0.04,0.205
		l0.481,0.723l0.079,0.232l0.1,0.455l0.227,0.307l0.561,0.455l1.711,3.063l0.246,0.277l0.441,0.406l0.167,0.18l0.126,0.229
		l0.152,0.434l0.153,0.188l0.123-0.141l0.232,0.334l0.354,1.129l0.623,0.6l0.279,0.367l-0.036,0.328l0.608,0.877l0.229,0.494
		l-0.114,0.373l0.367,0.414l0.065,0.092l-0.052,0.254l-0.202,0.396l-0.052,0.227l0.167,0.213l0.316,0.219l0.227,0.277l-0.123,0.371
		l0.227,0.268l0.088,0.875l0.341,0.662l0.192,0.482l0.102,0.533l-0.115,0.379l-0.355,0.154l-0.366-0.012l-0.281,0.072l-0.114,0.447
		l0.062,0.395l0.192,0.328l0.455,0.486l0.534,0.402l3.239,1.729l0.683,0.574l0.902,0.406l0.36,0.227l0.266,0.369l0.162,0.166
		l0.232,0.061l0.18,0.102l0.162,0.23l0.293,0.545l0.354,0.406l0.074,0.166l0.019,0.18l-0.158,0.201l0.079,0.154l0.359,0.467
		l0.228,0.219l0.279,0.102l0.302,0.162l0.303,0.406l0.231,0.496l0.092,0.459l0.368,0.902v0.42l-0.526,0.201l0.192,0.406l0.142,0.916
		l0.113,0.434l0.315,0.508l0.092,0.201l0.162,0.646l0.18,0.473l0.1,1.434l-0.087,0.498l-0.201,0.342l-0.246,0.305l-0.175,0.395
		l0.875,0.088l0.915,0.279l0.74,0.535l0.328,0.836l-0.039,0.229l-0.087,0.166l-0.053,0.18l0.053,0.301l0.126,0.207l0.368,0.34
		l0.075,0.115l0.227,0.012l1.199,0.496l1.484,1.068l1.089,1.121l0.359,0.582l0.315,0.826l0.054,0.797l-0.429,0.561l0.228,0.365
		l0.375,0.27l0.373,0.193l0.162,0.113l0.105,0.24l0.749,1.143l0.572,0.379l0.149,0.207l0.026,0.201l-0.026,0.561l0.192,0.281
		l0.889,1.75l0.394,0.508l1.449,1.234l0.214,0.254l0.113,0.328l0.076,0.953l0.358,1.832l0.281,0.734l0.051,0.494l0.211,0.393
		l2.276,2.291l1.183,1.805l0.278,0.289l0.268,0.125l0.293,0.207l0.836,1.281l0.8,1.73l0.167,0.783l0.14,1.588l-0.359,1.779
		l-0.24,0.674l-0.242,0.699l-0.078,0.582l-0.188,0.42l-0.101,0.572l-0.368,0.813l-0.193,0.904l-0.087,0.277l-0.227-0.141
		l-0.228-0.201l-0.193-0.229l-0.078-0.24l0.092-0.32l-0.015-0.127l-0.151-0.061l-0.369-0.012l-0.188,0.021l-0.079,0.051
		l-0.429,0.215l-0.297,0.254l-0.227,0.789l-0.149,0.318l-0.039,0.293l0.201,0.342l0.28,0.18l0.294,0.074h0.314l0.333-0.039
		l0.114-0.088l0.101-0.154l0.141-0.1l0.213,0.053l0.114,0.127l-0.026,0.15l-0.061,0.166l-0.026,0.152l0.293,1.463l-0.012,0.025
		l0.012,0.555l0.053,0.193l0.062,0.141l0.013,0.127l-0.127,0.141l0.066,0.254l-0.066,0.273l-0.162,0.234l-0.205,0.086l-0.075,0.154
		l0.302,1.611l0.307,0.219l0.227-0.166l-0.101-0.482l1.143,0.289l0.267,0.152l0.167,0.279l0.1,0.334l0.18,0.289l0.342,0.127
		l0.333,0.166l0.253,0.381l0.161,0.473l0.102,0.621l0.105,0.141l0.049,0.113l-0.075,0.176l-0.113,0.092l-0.6,0.188l0.447,0.729
		l0.135,0.16l0.206,0.08l0.521,0.049l0.218,0.104l0.281,0.289l0.403,0.574l0.244,0.24l0.709,0.434l0.307,0.328l0.123,0.482
		l-0.215,0.42l-0.088,0.266l0.088,0.115l0.14,0.053l0.141,0.127l0.481,0.533l0.166,0.293l0.113,0.328l0.092,0.928l0.177,0.422
		l0.306,0.301l0.876,0.447l0.152,0.111l0.137,0.143l0.156,0.201l0.123,0.24l0.158,0.205l0.227,0.074l0.176,0.053l0.201,0.102
		l0.185,0.115l0.069,0.1l0.079,0.244l0.192,0.127l0.455,0.162l1.217,0.727l0.421,0.369l0.306,0.227l0.788,0.268l1.715,0.84
		l0.929,0.723l0.074,0.152l-0.039,0.674l0.039,0.15l0.229,0.23l0.748,0.508l0.166,0.215l0.153,0.42l0.976,1.424l0.192,0.494
		l0.175,0.367l0.307,0.24l1.095,0.154l0.42,0.193l1.016,0.949l0.14,0.205l0.103,0.189l0.02,0.268l-0.086,0.217l-0.241,0.113
		l-0.39-0.012l0.556,0.557l0.836,0.371l0.613,0.381l-0.152,0.607l-0.162,0.102l-0.206,0.092l-0.167,0.102l-0.039,0.16l0.131,0.127
		l0.49,0.154l0.105,0.08l0.127,0.34l0.319,0.141l0.416,0.063l0.407,0.127l0.24,0.193l0.635,0.697l0.334,0.229l0.14,0.041
		l0.148-0.066l0.306-0.053l0.281,0.092l0.568,0.455l3.519,1.957l1.363,0.473l0.365,0.354l0.994,0.66l3.844,1.525l0.184,0.113
		l0.137,0.141l0.24,0.508l0.105,0.074l0.176,0.078l0.113,0.168l0.053,0.227l0.053,0.422l0.1,0.111l1.355,0.775l0.309,0.215
		l0.416,0.18l1.02-0.08l0.494,0.127l0.381,0.293l0.301,0.295l0.348,0.213l0.9,0.127l0.328,0.088l2.037,0.969l0.381,0.307
		l0.061,0.174l0.025,0.254l-0.025,0.473l0.066,0.141l0.152,0.088l0.354,0.139l1.678,1.195l1.336,1.178l0.621,0.393l1.588,0.588
		l0.658,0.355l0.139,0.127l0.205,0.217l0.162,0.264l0.066,0.281l1.209-0.268l1.203,0.32l2.313,0.975l1.285,0.32l1.156,0.572
		l0.609,0.137l0.205,0.105l0.176,0.201l0.266,0.9l0.18,0.295l0.342-0.154l0.293,0.115l0.328,0.205l0.385,0.102l0.824-0.016
		l0.357,0.127l0.783,0.561l0.916,0.469l0.406,0.32l3.902,1.725l2.23,1.615l0.789,0.281l3.266,0.381l1.207,0.52l0.877,0.141
		l0.205,0.113l0.455,0.289l0.127,0.078l0.219,0.049l0.141,0.127l0.215,0.307l0.188,0.139l0.18,0.027h0.188l0.232,0.074l0.48,0.334
		l1.17,1.369l0.193,0.42l-0.018,0.42l0.09,0.395l0.521,0.314l0.99,0.229l0.508,0.232l0.205,0.367l0.18,0.189l0.85,0.498l0.289,0.275
		l0.043,0.232l-0.025,0.453l0.113,0.217l0.166,0.078l1.318,0.102l0.467,0.139l0.447,0.189l1.143,0.674l0.514,0.486l0.961,1.154
		l0.676,0.555l0.797,0.361l3.482,0.875l0.088,0.047l0.354,0.232l0.373,0.33l0.189,0.139l0.494,0.166l0.814,0.141l0.342,0.102
		l0.342,0.279l0.293,0.67l0.051,0.066l0.748,0.521l0.57,0.746l0.168,0.102l0.131,0.041l0.086,0.1l0.088,0.74l0.293,0.861
		l0.088,0.395l0.189,2.211l0.131,0.432l0.061,0.43l-0.088,0.508L496,476.106l-0.131,0.252l0.014,0.23l0.092-0.051l0.695-0.1
		l0.434,0.1l0.455,0.227l0.762,0.563l1.014,0.43l0.334,0.252l0.635,0.727l0.279,0.268l0.443,0.266l1.082,1.064l0.432,0.053
		l1.236,0.408l0.414,0.229l0.889,0.674l0.334,0.139l0.305,0.189l0.189,0.432l0.275,0.85l0.271,0.244l0.748,0.229l0.354,0.215
		l1.217,1.119l0.119,0.051l0.201,0.037l0.1,0.049l0.115,0.141l0.113,0.232l0.08,0.088l1.602,1.461l0.594,0.406l0.637,0.277
		l0.674,0.105l0.459,0.199l1.191,1.322l1.234,0.889l0.393,0.355l0.01,0.014l0.092,0.078l0.482,0.254l0.459,0.393l0.699,0.775
		l0.256,0.369l-0.045,0.227l-0.162,0.254l-0.127,0.434l0.027,0.176l0.113,0.486v0.238l-0.053,0.242l-0.191,0.48l-0.098,0.701
		l-0.219,0.787l-0.027,0.496l0.053,0.152l0.193,0.229l0.061,0.213v0.27l-0.113,0.459l-0.025,0.254v0.607l-0.242,0.596l-0.049,0.232
		l0.072,0.506l0.412,0.891l0.375,2.223v1.498l0.066,0.332l0.738,1.916l0.049,0.303l-0.014,0.232l-0.113,0.596l0.078,0.127
		l0.143,0.113l0.086,0.154l-0.279,0.572l-0.053,0.43l0.025,0.875l-0.035,0.219l-0.117,0.408l0.014,0.199l0.113,0.066l0.254,0.201
		l0.191,0.229l-0.078,0.1l-0.035,0.152l0.535,0.842l0.301,0.836l0.434,0.6l-0.088,0.43l0.049,0.713l0.166,0.977l-0.1,0.395
		l0.025,0.367l-0.115,0.254l-0.506,0.039l1.023,1.002l0.115,0.281l0.064,0.445l0.494,1.295l0.039,0.396l-0.188,1.18v0.623
		l0.457,0.674v0.254l-0.129,0.42l-0.025,0.229l0.127,0.582l0.078,0.738l0.201,0.637l0.027,0.48l-0.041,0.215l-0.205,0.473
		l-0.033,0.227l0.033,0.215l0.205,0.332l0.041,0.141l-0.08,0.43l-0.381,0.688l-0.127,0.328l0.014,0.232l0.113,0.521l0.027,0.148
		l-0.115,0.232l-0.139,0.072l-0.127,0.104l-0.055,0.266l0.088,0.266l0.627,1.018l-0.125,0.611l-0.107,0.162l-0.289,0.359
		l-0.166,0.467l-0.48,0.342l-0.115,0.268l0.063,0.293l0.293,0.535l0.074,0.393v1.219l-0.102,0.344l-0.469,0.535l-0.139,0.266
		l-0.025,0.33l0.266,2.262l-0.039,0.723l-0.201,0.648l0.088,0.039l0.039,0.049l0.047,0.025l0.105,0.041v0.152l-0.279,0.43
		l0.193,0.902l-0.359,0.318v0.166l0.359,0.201l0.428,0.332l0.359,0.342l0.148,0.268l0.08,0.314l0.301,0.828l0.053,0.445
		l-0.064,0.189l-0.369,0.434l-0.227,0.787l-0.127,0.201l-0.066,0.395l0.271,0.469l0.582,0.754l0.074,0.227l0.08,0.688l-0.027-0.027
		l-0.061,0.074l-0.053,0.129l-0.014,0.127l0.066,0.139l0.096,0.1l0.092,0.119l0.141,0.51l0.469,0.912l0.139,0.369l-0.014,0.127
		l-0.125,0.188v0.141l0.051,0.113l0.176,0.232l0.053,0.125l0.113,0.457l0.039,0.52l-0.09,0.229l-0.395,0.166l-0.088,0.203
		l0.039,0.293l0.102,0.24l0.568,1.006l0.105,0.289l0.051,0.307l-0.092,0.342l-0.406,0.561l-0.088,0.328l0.088,0.219l0.18,0.188
		l0.141,0.193l-0.041,0.176l-0.42,0.344l-0.074,0.176l-0.012,0.406l-0.063,0.309l-0.131,0.279l-0.188,0.229l-0.557,0.494
		l-0.078,0.127l-0.254,0.674l-0.039,0.254l0.064,1.295l0.102,0.24l-0.189,0.588l0.086,0.666H780V27H374.383z M360.014,46.815
		l0.127,0.24l0.574,0.749l0.949,0.722l0.534,0.267l0.355-0.035l0.104-0.319l-0.281-0.308l-0.801-0.608l-0.1-0.153l-0.087-0.395
		l-0.091-0.162l-0.582-0.586l-0.08,0.074l-0.078,0.04l-0.062,0.052l-0.053,0.141l-0.236-0.092l-0.066-0.049l-0.166-0.166l-0.048,0.1
		l0.026,0.241L360.014,46.815z M102.286,114.011l-0.408-0.086l-0.214-0.027l-0.167-0.079l-0.009-0.2l0.009-0.229l-0.034-0.205
		l-0.093-0.101l-0.114-0.087l-0.126-0.066l-0.114-0.048l-0.455,0.228l-1.983,0.228l-0.14,0.052l-0.232,0.162l-0.201,0.052
		l-0.149-0.013l-0.486-0.114l-0.214-0.013l-0.254,0.066l-0.561,0.24l-0.201,0.127l-0.332,0.354l-0.307,0.434l-0.228,0.508
		l-0.127,0.547l-0.039,1.002l0.039,0.267l0.232,0.214l0.368,0.166l0.376,0.088l0.306-0.027l0.193,0.206l0.447,0.648l0.149,0.14
		l0.113,0.036l0.104,0.114l0.141,0.091l0.441,0.087l0.714,0.253l0.394,0.027l0.367-0.066l0.281-0.201l0.101-0.42l0.1-0.062
		l1.03,0.025l0.101-0.039l0.201-0.126l0.246-0.307l0.228-0.381l0.253-0.328l0.341-0.141v-0.1l0.18-0.46l0.047-0.061l-0.035-0.232
		l-0.114-0.302l-0.014-0.254l0.269-0.867l0.052-0.495l-0.228-0.202L102.286,114.011z M64.442,68.382l0.101,0.192l0.154-0.039v-0.179
		l-0.136-0.088L64.442,68.382z M68.51,73.871h-0.105l0.044,0.062L68.51,73.871z M313.027,161.759l0.517-0.114l0.385-0.04
		l0.928,0.141l0.263,0.105l0.079,0.087h0.053l0.174-0.192l0.167-0.315l0.127-0.319l0.066-0.114l0.302-0.28l0.065-0.176l1.051-0.446
		l0.228-0.202l0.113-0.127l0.08-0.126l0.061-0.154l0.043-0.166l-0.905-0.214l-1.432-0.888l-0.955-0.026l-0.445,0.152l-1.143,0.557
		l-1.274,0.373l-0.289,0.213l-0.306,0.836l-0.696,1.283l-0.092,0.319l-0.262,3.061l0.201,0.599l0.289,0.167l0.5,0.127l0.508,0.035
		l0.354-0.1l0.42-0.255l0.802-0.179l0.279-0.214l0.123-0.306l0.114-0.482l0.026-0.442l-0.188-0.192l-0.162-0.1l-0.044-0.254
		l0.018-0.293l-0.039-0.202l-0.141-0.118l-0.459-0.276l-0.101-0.166l0.154-0.342L313.027,161.759z M68.47,74.034l-0.127,0.091v0.114
		l0.052,0.127l0.115,0.062l0.101-0.101l0.039-0.101l-0.079-0.153L68.47,74.034z M75.583,112.943l1.45-0.569l0.205-0.118v-1.791
		l0.088-0.775l-0.065-0.442l-0.254-0.193l-0.188-0.114l-0.727-0.735l-0.241-0.152l-0.14-0.027l-0.495,0.18l-0.962,0.215
		l-0.779,0.394l-1.839-0.053l-0.052,0.268l0.266,0.788l0.14,0.954l0.163,0.456l0.28,0.433l0.359,0.368l0.061,0.087l-0.026,0.079
		l0.019,0.061l0.096,0.079l0.092,0.013l0.228-0.04l0.092,0.027l0.631,0.241l0.385,0.101l0.441,0.293l0.206,0.062h0.201
		L75.583,112.943z M89.888,118.126h-0.126l-0.188-0.101l-0.74-0.735l-0.279-0.119l0.14-0.274l-0.14-0.245l-0.188-0.189l-0.246-0.114
		l-0.289-0.039l0.026-0.455l-0.434-0.232l-0.879-0.163l-0.097-0.319l-0.018-0.381l-0.14-0.18l-0.469,0.306l0.18-0.328l0.561-0.486
		l0.122-0.394l-0.087-0.862l-0.192-0.788l0.025-0.062l0.065-0.105l0.049-0.127v-0.114l-0.343-0.087l-0.086-0.053l-0.268-0.289
		l-0.126-0.166l-0.052-0.193l-0.149-0.228l-2.136-1.335l-0.061-0.061l-0.158-0.041l-0.137-0.1l-0.065-0.241v-0.228l-0.025-0.127
		l-0.075-0.092l-0.875-0.788l-0.232-0.367l-0.377-2.312l0.049-0.963l-0.04-0.512l-0.139-0.368l-0.14-0.074l-0.215-0.052
		l-0.442-0.013l-0.154-0.087l-0.292-0.394l-0.127-0.087l-0.188-0.207l-0.244-0.888l-0.28-0.202l-0.074-0.193l-0.075-0.442
		l-0.166-0.473l-0.332-0.301l-0.215,0.074l-0.39-0.012l-0.245,0.078L77.5,99.934l-0.123,0.206l-0.14,0.167l-0.687,0.175
		l-0.395,0.219l-0.42,0.114l-0.521-0.167l-0.139,0.827l-0.404,0.403l-1.413,0.788l-0.162,0.065l-0.115,0.088l-0.043,0.179
		l0.066,0.153l0.42,0.556l0.416,0.219l0.373-0.079l0.722-0.495l0.728-0.281l0.647,0.026l0.456,0.342l0.175,0.687l0.026,0.207
		l0.092,0.329l0.022,0.192v0.709l0.053,0.354l0.152,0.32l0.381,0.534l-0.507,0.153l-0.036,0.416l0.264,0.46l0.42,0.254l-0.026,0.647
		l0.481,0.535l1.269,0.674l0.192,0.328l0.079,0.087l0.14,0.067l0.262,0.025l0.167,0.048l0.254,0.206l0.065,0.202l-0.026,0.607
		l0.188,0.688l0.394,0.749l0.498,0.661l0.495,0.459l0.254,0.101l0.608,0.188l0.28,0.127l0.268,0.232l0.153,0.267l-0.014,0.302
		l-0.24,0.346l-0.32-0.118l-0.293,0.32l-0.188,0.433v0.227l-0.115,0.053l-0.205,0.314l-0.114,0.127l-0.201,0.079l-0.229-0.013
		l-0.368-0.127l-0.104-0.066l-0.088-0.087l-0.14-0.078l-0.228-0.062h-0.246l-0.721,0.188l-0.531,0.219l-0.332,0.035l-0.08,0.092
		v0.153l-0.101,0.162l-2.438,1.576l-0.634,0.609l-0.573,0.893l-0.189,0.937l0.521,0.814l0.228,0.066l0.241,0.008l0.192,0.052
		l0.074,0.241l0.013,0.481l0.04,0.233l0.087,0.213l0.306,0.294l0.443,0.14l2.35-0.027l1.883,0.254l0.328-0.087l0.459,0.101
		l2.399-0.788l0.674-0.482l0.394-0.113l0.674-0.052l0.341,0.026l0.355,0.162l0.232-0.328l0.534-0.596l0.236-0.346l0.459,0.141
		l0.041-0.381l-0.08-0.508l0.661-2.044l0.179-0.087l0.496-0.219l0.101-0.127l-0.013-0.302L89.888,118.126z M94.844,108.676
		l0.061-0.027l0.086-0.026l-0.594-0.381l-1.095-1.217l-0.674-0.254l-0.508-0.079l-1.436-0.482l-0.403-0.293l-0.087,0.105
		l-0.065,0.009l-0.153-0.114l-0.394,0.08l-0.342,0.266l-0.166,0.354l0.127,0.368l-0.065,0.281l-0.885,1.221l0.535,0.087l0.209,0.443
		l0.141,0.534l0.28,0.359l0.472-0.193l0.395,0.126l0.368,0.229l0.408,0.127h1.458l0.901,0.267l0.473,0.065l0.381-0.127l0.153-0.433
		l0.447-0.661l0.141-0.381l-0.28-0.166L94.844,108.676z M90.637,91.35l0.329-0.661l-0.262-0.941l-0.854-0.468l-0.153,0.367
		l0.153,0.889l-0.153,0.446L90.637,91.35z"/>
</g>
<g id="Peru">
	<polygon fill="#6CA651" points="551.715,363.584 549.525,359.733 547.355,355.885 545.17,352.038 542.986,348.2 540.797,344.35 
		538.617,340.516 536.441,336.678 534.258,332.842 533.662,331.801 533.27,331.788 530.678,332.069 529.977,331.928 529.189,331.42 
		528.834,331.266 528.273,331.229 527.42,331.282 527.018,331.254 526.611,331.141 525.734,331.1 520.666,333.678 519.813,333.973 
		518.771,334.178 517.693,334.225 516.639,334.059 515.672,333.579 515.156,333.096 514.209,331.991 513.654,331.495 
		513.193,331.594 511.406,333.032 511.406,331.321 511.416,328.624 511.43,325.944 511.43,323.252 511.443,320.561 511.443,317.864 
		511.457,315.184 511.457,312.493 511.469,309.815 511.469,308.54 511.662,307.706 511.785,307.477 511.949,307.297 
		512.152,307.143 512.371,307.016 512.484,307.016 512.705,307.157 512.816,307.131 512.914,307.016 512.965,306.762 
		513.045,306.622 513.285,306.282 513.447,305.913 513.492,305.52 513.352,305.086 513.105,304.78 512.484,304.299 512.258,303.983 
		512.117,303.59 511.963,302.903 511.758,302.522 511.877,302.495 512.424,302.469 512.539,302.508 512.816,302.561 513.02,302.508 
		512.727,302.014 512.766,301.747 512.939,301.542 513.213,301.467 513.172,301.401 513.105,301.239 513.072,301.172 
		513.465,300.997 513.563,300.733 513.613,300.385 513.834,300.004 513.867,299.956 513.842,299.676 512.965,299.764 
		512.547,299.85 512.143,300.057 511.711,300.424 510.971,301.325 510.576,301.721 509.191,302.495 508.764,302.815 
		507.977,303.612 507.555,303.944 506.514,304.514 506.172,304.897 505.578,305.774 505.332,305.975 504.797,306.307 
		504.557,306.497 504.369,306.75 504.123,307.284 503.961,307.524 503.582,307.819 502.285,308.172 500.885,308.786 
		500.535,309.047 500.264,309.506 500.074,310.002 499.795,310.409 498.779,310.75 498.039,311.325 497.637,311.538 
		497.357,311.551 497.178,311.452 497.023,311.325 496.797,311.245 496.508,311.272 496.395,311.399 496.303,311.551 
		496.096,311.717 495.721,311.819 494.939,311.819 491.207,311.807 487.486,311.807 483.752,311.792 478.902,311.792 
		479.131,311.352 479.154,310.983 479.111,310.61 479.139,310.182 479.252,309.954 479.586,309.569 479.637,309.301 
		479.586,309.086 479.41,308.659 479.357,308.413 478.91,307.577 477.439,306.663 477.195,305.86 477.449,305.059 477.514,304.653 
		477.387,304.286 476.828,303.612 476.627,303.256 476.572,302.815 476.6,302.202 476.572,302 476.447,301.821 476.23,301.807 
		475.986,301.846 475.785,301.821 475.404,301.569 474.832,301.059 474.428,300.844 473.996,300.756 472.725,300.844 
		471.785,300.745 471.391,300.625 470.529,300.198 469.676,299.93 469.271,299.85 469.193,299.864 469.027,299.977 468.928,300.004 
		468.813,299.969 468.623,299.815 468.52,299.764 465.98,299.256 457.584,299.217 458.031,298.506 459.135,297.4 459.615,296.753 
		459.957,296.083 460.184,295.749 460.443,295.584 460.736,295.548 461.078,295.456 461.357,295.294 461.48,295.04 461.498,294.454 
		462.447,293.706 462.66,293.438 462.828,293.031 462.934,292.409 462.701,290.646 462.574,290.301 462.006,289.438 
		461.725,289.146 460.951,288.623 460.645,288.369 459.029,286.02 458.662,285.13 458.424,284.735 458.066,284.382 457.66,284.168 
		456.455,283.914 456.008,283.682 455.627,283.313 454.74,282.158 454.613,281.816 454.6,281.423 454.791,280.481 454.773,280.049 
		454.625,279.667 454.332,279.365 454.145,279.3 453.697,279.239 453.496,279.158 453.291,278.972 452.945,278.524 452.717,278.336 
		451.066,277.421 450.764,277.128 450.623,276.735 450.52,275.872 450.33,275.325 449.723,274.524 449.451,274.042 449.402,273.648 
		449.518,272.86 449.504,272.453 449.275,271.959 448.59,271.031 448.453,270.562 448.107,269.888 447.307,269.468 446.418,269.113 
		445.783,268.628 445.656,268.353 445.424,267.332 445.449,266.951 445.77,266.964 446.467,267.217 447.158,266.789 
		447.385,265.988 447.18,265.148 446.559,264.653 445.77,264.412 445.107,264.132 444.541,263.738 441.809,260.88 440.955,260.399 
		440.775,260.03 441.756,259.61 442.023,259.154 442.045,258.696 442.211,258.381 442.326,258.035 442.203,257.5 441.59,256.484 
		441.516,256.104 441.975,256.104 442.824,256.437 443.205,256.458 443.674,256.284 444.434,255.823 444.803,255.71 445.336,255.67 
		446.164,255.71 446.57,255.649 446.912,255.442 447.166,255.022 447.105,254.633 446.926,254.24 446.711,253.346 445.275,251.289 
		445.084,250.794 445.215,250.273 445.502,249.691 446.025,247.783 446.063,246.628 446.186,246.286 446.418,246.032 
		447.293,245.497 447.5,245.23 447.754,244.696 448.016,244.47 448.602,244.114 449.656,243.288 451.348,242.312 452.756,241.103 
		453.582,240.596 454.318,239.934 454.773,239.78 456.25,239.754 457.191,239.515 457.912,239.133 458.486,238.538 458.98,237.684 
		459.326,236.822 459.414,236.367 459.422,235.908 459.275,235.426 458.818,234.472 458.699,233.99 458.473,232.313 
		458.357,231.959 457.355,230.813 457.15,230.316 457.164,229.354 457.496,228.567 457.951,227.827 459.143,225.188 
		459.869,224.526 462.041,221.641 462.346,221.072 462.566,220.458 462.906,218.529 462.906,217.947 462.729,217.273 
		462.627,216.585 462.828,215.898 463.441,214.615 463.529,214.287 463.668,213.398 463.834,213.093 464.051,212.813 
		464.238,212.524 464.277,212.191 464.162,210.921 464.051,210.589 463.861,210.286 463.703,209.919 463.797,209.612 
		464.289,209.485 464.57,209.473 464.736,209.433 465.025,209.285 465.053,209.192 465.064,208.891 465.129,208.785 
		465.232,208.772 465.498,208.864 465.611,208.877 466.461,208.71 466.82,208.544 467.102,208.203 467.355,207.998 467.748,208.049 
		468.178,208.176 469.307,208.176 469.5,208.116 469.701,207.936 469.766,207.744 469.779,207.542 469.867,207.328 470.146,207.061 
		470.717,206.793 471.225,206.234 471.557,205.979 471.938,205.813 472.332,205.764 472.633,205.751 472.764,205.625 
		472.826,205.445 472.939,205.256 472.953,205.179 472.953,205.064 472.967,204.937 473.027,204.823 473.119,204.785 
		473.412,204.771 473.525,204.75 473.975,204.517 474.314,204.277 474.541,203.935 474.691,202.806 474.91,202.56 475.785,202.319 
		475.891,202.205 475.951,202.053 476.053,201.913 476.307,201.852 477.082,201.965 477.361,201.952 477.742,201.826 
		478.115,201.611 479.178,200.822 480.332,200.188 480.727,199.855 480.969,199.554 481.354,198.792 481.502,198.625 
		481.682,198.638 481.869,198.726 482.074,198.8 482.256,198.765 482.443,198.638 482.789,198.345 483.412,198.144 484.387,197.202 
		484.934,196.823 485.287,196.717 487.018,196.528 487.158,196.477 487.232,196.389 487.258,196.249 487.32,196.108 
		487.486,196.021 487.713,196.047 488.182,196.262 488.426,196.335 488.82,196.288 489.061,196.108 489.277,196.047 
		489.609,196.301 489.824,196.502 489.984,196.59 490.178,196.568 490.445,196.477 490.865,196.061 491.08,195.995 490.992,196.441 
		491.955,196.034 492.248,196.007 492.77,196.108 492.936,196.122 493.049,195.995 493.176,195.54 493.316,195.36 493.609,195.233 
		493.926,195.194 494.564,195.18 495.527,195.04 495.807,195.079 496.01,195.233 496.135,195.46 496.314,195.574 496.596,195.46 
		496.67,195.398 496.857,195.145 496.99,195.079 497.129,195.105 497.242,195.167 497.316,195.18 497.523,194.913 497.523,194.698 
		497.484,194.485 497.531,194.243 497.877,193.95 498.371,193.837 498.854,193.938 499.428,194.572 499.703,194.258 
		500.008,193.771 500.35,193.569 500.49,193.709 500.723,194.177 500.885,194.332 501.217,194.384 501.41,194.266 501.691,193.796 
		502.197,193.596 503.287,194.051 503.695,193.723 503.797,193.25 504.123,193.645 504.557,194.038 504.99,193.608 505.184,193.202 
		505.447,192.869 506.068,192.26 506.271,191.92 506.387,191.547 506.553,191.246 506.873,191.079 507.201,190.979 507.25,190.771 
		507.074,190.278 507.148,189.998 507.416,189.756 508.404,189.275 508.623,189.25 509.932,189.59 510.301,189.604 510.529,189.429 
		510.768,188.793 510.961,188.561 511.289,188.426 511.617,188.487 511.645,188.793 511.582,189.174 511.596,189.489 
		512.572,190.063 512.766,189.848 512.854,189.463 512.992,189.108 513.326,188.942 513.654,189.074 513.744,189.376 
		513.807,189.682 514.033,189.809 514.342,189.708 515.205,189.022 515.531,188.881 515.824,188.807 516.131,188.842 
		516.486,188.981 517.006,189.442 517.26,189.516 517.643,188.92 517.908,188.996 518.148,189.275 518.316,189.582 518.352,189.998 
		518.162,190.786 518.201,191.153 518.402,191.434 519.436,192.247 519.639,192.313 519.813,192.301 519.979,192.335 
		520.119,192.541 520.285,192.869 520.525,193.163 520.92,192.809 521.266,192.02 521.529,191.639 521.914,191.434 522.377,191.398 
		522.797,191.547 523.023,191.928 523.131,192.448 523.244,192.603 523.498,192.856 523.752,193.036 524.045,193.11 
		524.338,193.075 525.047,192.567 525.406,192.068 525.609,191.526 525.555,190.938 524.969,189.783 524.602,189.25 524.18,188.754 
		523.551,188.246 521.441,187.178 520.881,186.619 520.666,185.935 520.539,185.188 520.285,184.447 519.787,183.738 
		519.104,183.025 518.316,182.456 517.516,182.175 516.918,182.237 516.473,182.518 515.645,183.252 515.115,183.497 
		514.555,183.484 513.439,183.204 513.213,183.05 510.375,181.576 509.465,181.475 510.174,180.385 511.811,177.842 513.447,175.29 
		515.088,172.746 516.73,170.195 518.367,167.655 520.004,165.104 521.656,162.561 523.297,160.021 523.766,159.274 523.766,159.26 
		523.652,159.221 523.41,159.028 523.23,158.774 523.104,158.473 522.838,157.557 522.611,157.404 522.176,157.685 522.063,157.872 
		521.961,158.104 521.861,158.266 521.668,158.319 521.475,158.219 521.441,158.026 521.455,157.823 521.387,157.606 
		520.967,157.291 520.617,157.391 520.271,157.545 519.877,157.404 519.646,157.036 519.357,156.147 519.09,155.767 
		518.631,155.535 518.227,155.675 517.807,155.916 517.301,156.056 517.195,155.995 517.059,155.841 516.959,155.649 
		516.941,155.473 517.045,155.386 517.4,155.246 517.5,155.18 517.605,154.738 517.334,154.532 516.893,154.484 516.451,154.484 
		516.219,154.545 515.725,154.747 515.506,154.773 515.27,154.646 515.137,154.471 515.076,154.265 514.949,154.037 514.682,153.81 
		514.328,153.631 513.92,153.517 513.578,153.465 513.246,153.301 512.992,153.009 512.713,152.83 512.357,153.058 512.311,153.263 
		512.318,153.49 512.291,153.697 512.143,153.771 511.275,153.771 511.137,153.67 511.102,153.416 511.102,153.123 511.063,152.908 
		510.936,152.689 510.273,152.146 510.201,152.107 510.201,151.499 510.146,151.333 510.047,151.232 509.5,151.167 509.117,151.066 
		508.344,150.797 507.617,150.331 506.541,149.17 505.906,148.79 505.473,148.982 504.939,148.881 504.063,148.513 503.455,148.501 
		503.24,148.79 503.287,149.263 503.477,149.783 503.287,149.896 503.033,149.923 502.781,149.872 502.246,149.556 501.98,149.542 
		501.393,149.643 500.91,149.872 500.518,150.851 499.922,151.153 499.527,151.459 499.309,151.508 499.082,151.433 
		498.828,151.245 498.6,151.193 498.295,151.32 497.863,151.547 497.471,151.635 497.305,151.345 495.807,152.068 495.105,152.222 
		494.867,151.788 494.959,151.625 495.232,151.367 495.299,151.193 495.221,150.978 494.727,150.353 494.357,149.704 
		494.145,149.63 493.85,149.937 493.645,150.711 493.479,150.952 493.15,150.797 493.014,150.479 492.988,149.603 492.883,149.223 
		492.643,149.043 491.438,148.79 491.006,148.562 490.625,148.26 490.205,148.015 489.709,147.927 489.01,148.282 488.602,148.347 
		488.426,148.001 488.461,147.266 488.295,147.152 487.84,147.358 486.623,148.132 486.418,148.142 486.316,148.36 485.555,149.502 
		484.574,150.265 484.408,150.432 484.32,150.886 484.066,151.14 483.699,151.232 482.377,151.053 481.703,151.053 481.121,151.28 
		480.539,151.788 479.611,152.842 479.305,152.931 477.949,152.627 477.742,152.642 477.211,152.755 477.094,152.842 
		477.107,153.263 477.055,153.416 476.879,153.465 476.381,153.517 475.557,153.731 475.086,153.771 474.691,153.697 
		474.322,153.49 474.043,153.236 473.947,152.996 473.754,152.83 471.609,152.489 471.215,152.375 470.26,151.612 469.895,151.406 
		469.514,151.345 469.254,151.687 468.699,152.816 468.432,153.058 468.09,153.189 467.957,153.136 467.898,152.589 
		467.836,152.375 467.748,152.195 467.645,152.041 467.391,152.169 467.215,152.322 467.109,152.514 467.057,152.768 
		466.514,152.375 466.154,152.26 465.639,152.514 465.039,152.729 464.797,152.969 464.51,153.07 463.615,153.25 463.424,153.25 
		463.262,153.123 463.057,152.768 462.701,151.801 462.398,151.547 462.334,151.421 460.898,150.632 460.85,150.859 
		460.596,151.333 460.324,151.586 460.184,151.14 460.01,150.952 459.094,150.725 458.754,150.493 458.699,150.338 458.6,149.718 
		458.539,149.603 458.24,149.389 458.18,149.288 458.145,149.162 457.939,148.841 457.898,148.64 457.926,148.435 457.988,148.294 
		458.18,148.067 458.941,147.393 459.135,146.938 459.756,145.932 459.475,145.669 459.309,145.235 459.193,144.753 
		459.055,144.373 458.688,143.839 458.547,143.559 458.473,143.225 458.5,142.937 458.699,142.416 458.754,142.223 458.627,141.882 
		458.145,141.295 458.031,141.016 458.18,140.241 458.039,140.013 457.865,139.899 457.672,139.824 457.471,139.672 456.91,139.05 
		456.691,139.05 456.604,139.592 456.48,139.672 455.781,139.492 455.449,139.531 455.119,139.859 454.953,140.092 454.74,140.053 
		454.24,139.592 453.977,139.43 453.723,139.405 453.496,139.417 453.197,139.378 452.971,139.405 452.869,139.391 452.85,139.316 
		452.77,139.036 452.742,138.958 451.387,138.135 450.967,137.627 451.02,136.826 451.256,136.125 451.434,135.824 451.947,135.518 
		451.955,135.124 451.74,134.261 451.715,133.981 451.715,133.762 451.676,133.561 451.51,133.333 451.08,133.013 450.838,132.646 
		450.064,132.292 449.871,131.972 450.203,131.578 450.305,131.35 449.977,131.21 449.863,131.07 449.758,130.903 449.723,130.755 
		449.695,130.308 449.656,130.129 449.582,129.98 449.504,129.967 449.225,130.002 449.148,129.98 449.109,129.889 449.074,129.661 
		448.916,129.345 448.869,129.113 448.768,128.925 448.27,128.785 447.865,128.492 447.639,128.431 447.158,128.338 
		446.764,128.124 446.467,127.805 446.291,127.437 445.975,127.55 445.643,128.071 445.283,128.265 445.047,128.265 
		444.701,128.186 444.145,127.998 443.867,127.805 443.646,127.59 443.277,127.007 442.965,126.181 442.834,125.988 442.49,125.861 
		441.834,126.001 441.555,125.852 441.527,125.686 441.717,125.318 441.695,125.151 441.516,124.999 441.414,125.051 
		441.336,125.192 441.262,125.278 441.029,125.38 440.932,125.493 440.814,125.519 440.549,125.419 440.381,125.278 440.285,125.1 
		439.787,123.65 439.559,123.437 439.227,124.044 438.656,124.057 437.387,123.575 436.143,123.348 435.584,123.042 
		435.111,122.434 434.822,121.492 434.604,121.225 434.082,120.871 433.957,120.679 434.096,120.438 434.363,120.389 
		434.691,120.451 434.984,120.451 435.111,120.222 434.996,119.956 434.783,119.742 434.664,119.5 434.83,119.169 434.664,119.093 
		434.297,119.08 434.096,119.027 433.957,118.927 433.246,118.152 433.105,117.846 433.115,117.452 433.207,117.277 
		433.475,117.045 433.527,116.896 432.533,114.747 432.484,114.572 432.467,114.327 432.418,114.125 432.318,114.037 
		432.025,114.024 431.924,113.972 431.732,113.679 431.469,113.377 431.217,113.158 429.941,112.396 429.395,111.98 428.52,111.053 
		427.924,110.059 427.73,109.91 427.504,109.945 427.328,110.046 427.195,110.151 427.082,110.199 426.803,110.186 426.68,110.111 
		426.613,110.011 426.496,109.91 426.361,109.792 426.268,109.704 426.146,109.643 425.621,109.59 425.201,109.49 424.99,109.464 
		424.619,109.336 424.783,109.056 425.367,108.623 424.645,107.191 424.352,106.771 423.904,106.391 423.668,106.438 
		423.143,107.279 422.908,107.454 422.701,107.467 422.348,107.354 421.633,107.201 421.191,106.999 420.911,106.784 
		420.062,105.87 419.922,105.765 419.73,105.703 419.362,105.703 419.181,105.638 418.942,105.41 418.118,104.281 417.724,103.975 
		417.278,103.746 416.336,103.493 415.921,103.453 415.602,103.519 415.396,103.734 415.334,104.127 415.22,104.395 
		414.966,104.714 414.634,104.968 414.319,105.069 414.065,105.384 413.592,105.716 413.33,105.856 413.048,105.944 
		412.715,105.957 412.007,105.856 411.828,105.883 411.268,106.25 410.721,106.198 409.25,105.41 408.97,105.336 408.681,105.336 
		408.295,105.375 407.98,105.309 407.594,105.156 407.218,105.055 406.912,105.156 406.798,105.523 406.899,105.984 
		407.104,106.391 407.293,106.605 407.482,106.645 407.928,106.618 408.129,106.645 408.382,106.798 408.83,107.201 
		409.083,107.328 409.53,107.48 409.871,107.687 410.113,107.988 410.773,110.338 411.167,111.215 411.762,112.042 412.147,112.396 
		412.383,112.549 412.603,112.589 412.857,112.562 412.984,112.628 413.059,112.755 413.886,113.377 413.977,113.477 
		414.074,113.718 414.166,113.819 414.266,113.832 414.458,113.731 414.559,113.77 414.788,114.138 414.861,114.52 414.8,115.334 
		414.828,115.509 414.878,115.662 414.901,115.815 414.853,116.003 414.673,116.195 414.419,116.322 414.188,116.476 414.1,116.717 
		414.119,116.931 414.205,117.313 414.214,117.519 414.179,117.732 414.039,118.1 414.039,118.367 414.966,121.505 414.966,121.685 
		414.94,122.052 414.975,122.241 415.132,122.474 415.334,122.647 415.482,122.853 415.482,122.994 415.308,123.002 
		414.319,123.002 413.426,123.121 412.945,123.107 412.743,122.941 412.628,122.726 412.335,122.394 411.753,121.86 411.614,122.04 
		411.36,123.068 410.721,125.519 410.099,127.971 409.465,130.422 408.842,132.86 408.541,134.068 408.26,134.791 407.761,135.378 
		406.619,136.445 405.783,137.409 404.74,138.617 403.687,139.838 402.644,141.042 401.603,142.25 400.56,143.458 399.505,144.661 
		398.464,145.87 397.422,147.091 396.179,148.028 394.936,148.982 393.675,149.937 392.432,150.886 391.188,151.84 389.928,152.781 
		388.685,153.731 387.438,154.686 386.26,155.587 385.013,156.336 383.083,156.998 380.452,157.912 377.82,158.827 375.194,159.742 
		372.563,160.657 369.933,161.571 367.307,162.486 364.675,163.401 362.045,164.316 360.662,164.798 360.267,164.998 
		358.731,166.335 356.609,169.152 355.605,169.993 355.299,170.308 354.664,171.542 354.397,171.91 353.636,172.471 353.395,172.76 
		353.395,173.219 353.636,173.6 353.963,173.828 354.217,174.135 354.271,174.703 354.078,175.136 353.75,175.264 353.382,175.351 
		353.054,175.618 352.773,175.745 352.572,175.377 352.275,174.033 352.125,173.727 351.859,173.512 350.957,173.258 
		350.51,173.207 350.169,173.307 349.938,173.701 349.954,173.828 350.077,174.248 350.068,174.475 349.915,175.364 
		349.608,176.305 349.229,177.145 349.087,177.561 349.035,177.968 349.053,178.717 349.127,179.151 349.114,179.355 348.96,179.47 
		348.694,179.518 348.594,179.544 348.579,179.659 348.579,179.912 348.847,181.261 348.721,181.667 348.212,182.162 
		348.046,182.263 347.792,182.39 347.666,182.478 347.451,182.884 347.297,183.279 347.092,184.813 347.092,184.968 
		347.003,185.047 346.715,185.209 346.443,185.301 346.19,185.313 345.963,185.375 345.747,185.59 345.647,185.935 345.656,187.178 
		345.446,188.094 344.159,190.75 343.967,191.666 343.791,192.068 343.397,192.387 343.231,192.821 343.258,193.608 
		343.424,194.384 343.677,194.773 344.172,195.079 344.124,195.413 343.791,195.806 343.485,196.301 343.437,196.682 
		343.458,197.089 343.437,197.497 343.248,197.824 342.442,198.357 340.526,199.12 339.664,199.601 338.713,200.478 
		338.319,201.011 338.074,201.584 338.088,202.158 338.574,203.095 338.67,203.588 338.46,204.011 337.961,204.111 337.418,204.123 
		336.998,204.228 336.779,204.57 336.538,205.585 336.384,206.018 335.851,206.587 335.243,207.096 334.861,206.715 
		334.634,206.553 334.407,206.434 334.188,206.412 333.858,206.5 333.645,206.5 333.278,206.425 332.577,206.18 332.208,206.119 
		330.72,206.172 330.239,206.045 329.958,205.699 329.731,205.256 329.451,204.862 329.272,204.736 328.864,204.583 
		328.676,204.457 328.558,204.277 328.436,203.856 328.322,203.681 327.955,203.415 327.516,203.187 327.166,202.894 
		327.008,202.459 326.947,202.04 326.404,201.011 326.16,199.781 325.551,198.892 325.563,198.446 326.046,197.597 326.098,197.291 
		325.984,197.089 325.551,196.848 325.043,196.848 324.916,196.782 324.623,196.555 324.461,196.477 323.402,195.434 
		322.82,195.159 322.07,195.259 321.344,195.679 319.947,196.108 319.16,195.995 318.638,195.46 318.209,194.8 317.676,194.318 
		317.128,194.177 316.595,194.177 316.048,194.116 315.479,193.796 315.059,193.503 314.384,192.768 314.003,192.448 
		313.649,192.322 313.215,192.247 312.87,192.134 312.733,191.92 312.682,191.928 311.832,192.046 311.6,192.12 311.385,192.221 
		311.207,192.362 311.031,192.655 310.813,193.39 310.664,193.723 310.332,194.077 308.72,195.294 307.871,195.754 307.665,195.933 
		307.499,195.956 307.131,195.956 306.777,195.841 305.835,195.307 305.556,195.053 305.375,194.625 305.455,194.266 
		308.221,190.61 308.453,190.151 307.485,190.265 306.576,190.532 305.849,190.457 305.401,189.529 305.401,189.336 305.49,188.942 
		305.48,188.754 305.367,188.487 305.025,188.006 304.92,187.752 304.96,187.358 305.14,186.824 305.375,186.33 305.607,185.983 
		305.927,185.769 306.304,185.656 306.724,185.629 307.158,185.656 307.59,185.783 308.466,186.25 308.86,186.342 309.307,186.123 
		309.648,185.694 309.954,185.209 310.256,184.841 311.88,184.093 312.213,183.724 312.213,183.506 312.1,183.379 311.907,183.265 
		311.715,183.05 311.666,182.871 311.666,182.491 311.64,182.302 311.451,181.882 311.031,181.208 310.944,180.788 310.979,180.639 
		311.065,180.486 311.132,180.333 311.119,180.131 310.979,179.737 310.97,179.571 310.97,179.365 311.005,179.177 311.132,178.783 
		311.172,178.568 311.145,178.337 311.031,177.942 311.018,177.715 310.97,177.514 310.777,177.434 310.576,177.374 
		310.444,177.221 310.444,177.055 310.61,176.498 310.65,176.104 310.65,175.898 310.603,175.71 310.462,175.557 310.116,175.417 
		309.99,175.303 309.937,174.87 310.068,174.437 310.116,174.069 309.823,173.84 309.026,173.639 308.68,173.461 308.553,173.399 
		308.553,173.6 308.466,173.815 308.187,174.287 308.125,174.515 307.984,174.896 307.639,175.164 307.223,175.342 306.812,175.43 
		305.367,175.377 305.035,175.504 304.842,175.618 304.64,175.645 304.474,175.723 304.351,176.152 303.458,177.434 
		302.863,178.021 299.544,179.978 298.8,180.587 298.241,181.3 297.856,182.021 297.715,182.464 297.667,182.937 297.54,183.37 
		297.225,183.658 296.358,184.146 295.571,184.753 294.922,185.44 293.793,187.131 293.461,187.8 293.233,188.033 292.865,188.119 
		292.463,188.26 292.164,188.588 291.789,189.275 291.303,189.756 289.486,190.991 289.246,191.272 288.965,191.727 
		288.724,192.221 288.624,192.628 288.926,193.796 288.926,194.278 288.624,194.993 288.47,195.22 288.343,195.333 288.191,195.434 
		287.976,195.641 287.884,195.942 288.023,196.349 288.216,196.77 288.343,197.15 288.331,197.483 288.156,198.546 287.976,198.919 
		287.91,199.093 287.836,199.588 287.709,199.693 287.542,199.767 287.429,199.948 287.349,200.175 287.341,200.416 
		287.517,200.744 288.191,201.252 288.458,201.672 290.173,203.427 290.335,203.768 290.493,204.237 290.834,204.644 
		291.648,205.279 292.322,205.953 292.852,206.854 292.878,207.682 292.051,208.15 291.202,208.242 291.088,208.43 291.062,208.925 
		291.027,209.145 290.822,209.539 290.781,209.792 290.808,209.892 290.896,210.081 290.908,210.194 290.86,210.348 290.58,210.58 
		290.502,210.707 290.615,211.202 291.049,211.836 291.583,212.444 292.051,212.852 293.32,213.513 293.619,213.946 
		295.444,215.836 295.837,216.419 296.905,218.783 297.348,220.573 297.365,222.342 296.792,223.864 296.026,224.614 
		295.176,224.893 294.266,224.714 293.364,224.145 293.084,223.738 292.905,223.572 292.638,223.572 292.139,224.487 
		291.99,224.552 291.57,224.574 291.202,225.301 290.983,226.01 290.961,226.85 291.123,227.727 291.496,228.579 292.078,229.415 
		292.717,230.015 293.425,230.471 294.428,230.952 294.861,231.079 295.076,231.171 295.764,231.679 296.35,231.88 297.225,232.734 
		297.948,233.036 298.354,233.302 298.643,233.924 298.95,234.091 300.412,234.625 302.509,235.793 305.861,237.369 
		309.569,239.387 312.835,240.889 313.203,241.129 315.592,243.227 315.719,243.414 315.821,243.48 316.188,243.962 
		316.214,244.074 316.314,244.176 316.433,244.91 316.735,245.585 317.116,246.208 318.157,247.367 319.532,248.269 
		319.734,248.584 319.882,248.979 321.344,250.642 321.563,251.062 321.685,251.521 321.73,252.029 321.87,252.522 322.21,252.918 
		323.047,253.679 323.506,254.388 323.91,255.29 324.203,256.218 324.32,257.106 324.295,257.261 324.189,257.592 324.18,257.819 
		324.242,258.021 324.418,258.354 324.548,258.735 326.781,261.733 327.188,262.582 327.228,262.863 327.174,263.064 327.1,263.23 
		327.053,263.445 327.035,263.725 327.053,263.865 327.28,264.032 329.233,267.117 330.34,268.313 332.751,270.143 333.11,270.483 
		333.784,271.473 334.161,271.692 336.218,273.608 336.651,274.196 336.932,274.805 337.084,275.272 338.188,277.316 
		338.319,277.877 338.179,278.298 337.628,278.398 337.628,278.538 338.114,279.059 338.417,279.313 339.064,279.566 
		339.549,279.909 340.376,280.696 341.006,281.497 341.506,282.359 341.795,283.24 341.813,284.142 341.453,285.043 
		341.313,285.537 341.441,285.944 342.508,287.175 342.801,287.761 343.169,288.155 343.231,288.256 343.335,288.549 
		343.537,288.815 343.69,289.146 343.651,289.64 343.524,289.879 343.363,290.046 343.248,290.213 343.231,290.493 343.665,290.379 
		343.853,290.668 343.944,291.508 344.124,291.888 344.352,292.068 344.641,292.195 344.973,292.369 345.2,292.563 345.428,292.816 
		345.569,293.132 345.52,293.526 345.428,293.706 345.28,293.833 345.1,293.92 344.666,293.999 344.465,294.1 344.361,294.199 
		344.452,294.239 344.692,294.339 344.895,294.594 345.051,294.937 345.1,295.315 345.192,295.496 345.38,295.268 345.582,294.847 
		345.673,294.454 345.848,294.188 346.242,294.1 346.637,294.226 346.816,294.594 346.837,295.215 346.816,295.408 346.69,295.598 
		346.356,295.89 346.242,296.118 346.497,296.284 346.637,296.577 346.698,296.857 346.75,296.984 346.864,297.059 347.399,297.554 
		347.577,297.452 347.87,297.413 348.134,297.513 348.247,297.781 348.225,298.608 348.247,298.862 348.554,299.323 
		348.974,299.624 349.175,299.905 348.821,300.323 349.026,300.665 349.167,301.172 349.315,302.508 349.683,303.764 
		350.157,304.553 352.134,306.942 352.365,307.489 352.292,307.879 352.086,308.25 351.986,308.758 352.064,308.987 
		352.441,309.696 352.546,310.129 352.529,310.215 352.467,310.323 352.415,310.436 352.415,310.563 352.48,310.678 352.554,310.75 
		352.642,310.803 352.695,310.856 352.827,311.032 352.965,311.17 353.08,311.364 353.115,311.653 353.255,312.098 353.79,312.961 
		353.851,313.456 353.763,313.663 353.636,313.749 353.549,313.875 353.549,314.182 353.614,314.411 353.728,314.625 
		353.877,314.803 354.472,315.389 354.792,315.833 355.285,316.788 355.418,316.989 355.847,317.508 355.908,317.729 
		355.973,318.245 356.065,318.438 356.949,319.239 357.142,319.532 357.203,319.719 357.243,320.188 357.283,320.393 
		357.764,321.116 357.843,321.348 357.943,321.803 358.17,322.11 358.731,322.565 360.442,325.627 360.688,325.905 361.13,326.311 
		361.297,326.491 361.423,326.719 361.576,327.153 361.729,327.34 361.852,327.2 362.084,327.534 362.438,328.663 363.061,329.262 
		363.34,329.629 363.305,329.958 363.913,330.834 364.142,331.329 364.028,331.702 364.395,332.116 364.46,332.208 364.408,332.461 
		364.207,332.858 364.154,333.084 364.321,333.297 364.637,333.516 364.864,333.793 364.741,334.165 364.968,334.432 
		365.056,335.307 365.397,335.969 365.59,336.452 365.692,336.985 365.577,337.364 365.222,337.518 364.856,337.506 
		364.575,337.579 364.46,338.026 364.522,338.42 364.714,338.749 365.169,339.235 365.704,339.637 368.943,341.366 369.625,341.94 
		370.527,342.346 370.888,342.573 371.154,342.942 371.316,343.108 371.548,343.168 371.728,343.27 371.89,343.5 372.183,344.045 
		372.537,344.452 372.611,344.618 372.629,344.797 372.471,344.999 372.55,345.153 372.909,345.62 373.137,345.838 373.417,345.94 
		373.719,346.102 374.021,346.508 374.252,347.004 374.345,347.463 374.713,348.366 374.713,348.786 374.187,348.987 
		374.379,349.393 374.521,350.309 374.633,350.743 374.949,351.25 375.041,351.452 375.203,352.098 375.383,352.571 
		375.483,354.004 375.396,354.502 375.194,354.844 374.949,355.149 374.774,355.543 375.649,355.631 376.564,355.911 
		377.304,356.446 377.632,357.282 377.593,357.51 377.506,357.676 377.453,357.856 377.506,358.157 377.632,358.364 378,358.704 
		378.075,358.819 378.302,358.831 379.501,359.327 380.985,360.395 382.075,361.516 382.434,362.098 382.749,362.924 
		382.803,363.721 382.374,364.282 382.601,364.647 382.977,364.917 383.35,365.11 383.511,365.223 383.616,365.463 384.365,366.606 
		384.938,366.985 385.087,367.192 385.113,367.393 385.087,367.954 385.279,368.235 386.168,369.985 386.562,370.493 
		388.011,371.727 388.226,371.981 388.338,372.309 388.414,373.262 388.772,375.094 389.053,375.829 389.104,376.323 
		389.316,376.715 391.592,379.006 392.774,380.811 393.053,381.1 393.321,381.225 393.614,381.432 394.451,382.713 395.251,384.444 
		395.417,385.227 395.557,386.815 395.198,388.594 394.958,389.268 394.717,389.967 394.639,390.549 394.451,390.969 
		394.35,391.542 393.982,392.354 393.789,393.258 393.701,393.536 393.474,393.395 393.246,393.194 393.053,392.965 
		392.975,392.725 393.067,392.405 393.053,392.278 392.901,392.217 392.533,392.206 392.344,392.227 392.266,392.278 
		391.836,392.493 391.539,392.747 391.312,393.536 391.163,393.854 391.124,394.147 391.325,394.489 391.604,394.668 
		391.898,394.743 392.213,394.743 392.546,394.704 392.66,394.616 392.76,394.461 392.901,394.362 393.115,394.415 393.229,394.542 
		393.202,394.692 393.141,394.858 393.115,395.01 393.408,396.473 393.396,396.499 393.408,397.053 393.46,397.247 393.522,397.387 
		393.535,397.514 393.408,397.655 393.474,397.909 393.408,398.182 393.246,398.417 393.041,398.502 392.966,398.657 
		393.268,400.268 393.575,400.487 393.802,400.321 393.701,399.838 394.844,400.127 395.111,400.28 395.278,400.559 
		395.377,400.893 395.557,401.182 395.899,401.309 396.232,401.475 396.485,401.856 396.646,402.329 396.748,402.95 396.853,403.09 
		396.902,403.204 396.827,403.379 396.713,403.471 396.114,403.659 396.561,404.387 396.696,404.547 396.902,404.627 
		397.422,404.676 397.64,404.78 397.921,405.069 398.325,405.643 398.569,405.883 399.278,406.317 399.584,406.645 399.708,407.127 
		399.493,407.547 399.405,407.813 399.493,407.928 399.632,407.981 399.773,408.108 400.254,408.641 400.42,408.934 
		400.534,409.262 400.625,410.19 400.802,410.612 401.108,410.913 401.984,411.36 402.136,411.471 402.273,411.614 402.429,411.815 
		402.552,412.055 402.71,412.26 402.937,412.334 403.113,412.387 403.314,412.489 403.499,412.604 403.568,412.704 403.647,412.948 
		403.839,413.075 404.294,413.237 405.511,413.963 405.932,414.333 406.238,414.559 407.026,414.827 408.741,415.667 
		409.669,416.389 409.744,416.542 409.705,417.215 409.744,417.366 409.973,417.596 410.721,418.104 410.887,418.319 
		411.041,418.739 412.016,420.163 412.208,420.657 412.383,421.024 412.69,421.264 413.785,421.418 414.205,421.612 415.22,422.561 
		415.36,422.766 415.462,422.956 415.482,423.223 415.396,423.44 415.155,423.553 414.765,423.542 415.321,424.098 416.157,424.469 
		416.77,424.85 416.618,425.458 416.456,425.559 416.25,425.651 416.083,425.752 416.043,425.913 416.174,426.04 416.665,426.194 
		416.77,426.274 416.897,426.614 417.216,426.754 417.632,426.817 418.04,426.944 418.28,427.137 418.915,427.834 419.249,428.063 
		419.388,428.104 419.537,428.038 419.842,427.985 420.124,428.077 420.692,428.532 424.211,430.489 425.574,430.961 
		425.939,431.315 426.934,431.975 430.777,433.5 430.961,433.614 431.098,433.754 431.338,434.262 431.443,434.336 431.619,434.415 
		431.732,434.583 431.785,434.809 431.838,435.231 431.938,435.342 433.293,436.118 433.602,436.333 434.018,436.512 
		435.037,436.432 435.531,436.559 435.912,436.852 436.213,437.147 436.561,437.36 437.461,437.487 437.789,437.575 
		439.826,438.543 440.207,438.85 440.268,439.024 440.293,439.278 440.268,439.75 440.334,439.891 440.486,439.979 440.84,440.118 
		442.518,441.313 443.854,442.491 444.475,442.883 446.063,443.471 446.721,443.827 446.859,443.954 447.064,444.17 
		447.227,444.434 447.293,444.715 448.502,444.448 449.705,444.768 452.018,445.743 453.303,446.063 454.459,446.635 
		455.068,446.772 455.273,446.877 455.449,447.079 455.715,447.979 455.895,448.274 456.236,448.12 456.529,448.235 456.857,448.44 
		457.242,448.542 458.066,448.526 458.424,448.653 459.207,449.213 460.123,449.682 460.529,450.002 464.432,451.727 
		466.662,453.342 467.451,453.624 470.717,454.004 471.924,454.524 472.801,454.665 473.006,454.778 473.461,455.067 
		473.588,455.145 473.807,455.194 473.947,455.321 474.162,455.627 474.35,455.766 474.529,455.793 474.717,455.793 
		474.949,455.868 475.43,456.202 476.6,457.571 476.793,457.991 476.775,458.411 476.865,458.805 477.387,459.12 478.377,459.348 
		478.885,459.581 479.09,459.948 479.27,460.137 480.119,460.635 480.408,460.911 480.451,461.143 480.426,461.596 480.539,461.813 
		480.705,461.891 482.023,461.993 482.49,462.131 482.938,462.321 484.08,462.995 484.594,463.481 485.555,464.635 486.23,465.19 
		487.027,465.551 490.51,466.426 490.598,466.473 490.951,466.706 491.324,467.036 491.514,467.174 492.008,467.34 492.822,467.481 
		493.164,467.583 493.506,467.862 493.799,468.532 493.85,468.598 494.598,469.12 495.168,469.866 495.336,469.967 495.467,470.008 
		495.553,470.108 495.641,470.848 495.934,471.709 496.021,472.104 496.211,474.315 496.342,474.747 496.402,475.176 
		496.314,475.684 496,476.106 495.869,476.358 495.883,476.588 495.975,476.538 496.67,476.438 497.104,476.538 497.559,476.764 
		498.32,477.327 499.334,477.756 499.668,478.008 500.303,478.735 500.582,479.002 501.025,479.268 502.107,480.333 
		502.539,480.385 503.775,480.793 504.189,481.022 505.078,481.696 505.412,481.834 505.717,482.024 505.906,482.456 
		506.182,483.305 506.453,483.549 507.201,483.778 507.555,483.993 508.771,485.112 508.891,485.163 509.092,485.2 509.191,485.249 
		509.307,485.389 509.42,485.622 509.5,485.709 511.102,487.17 511.695,487.577 512.332,487.854 513.006,487.959 513.465,488.159 
		514.656,489.481 515.891,490.37 516.283,490.725 517.098,490.297 518.176,490.217 520.412,490.432 521.492,490.317 522.01,490.168 
		523.498,489.331 523.992,489.161 524.619,489.149 525.074,488.975 525.441,488.667 526.432,487.485 527.258,486.762 
		527.639,486.344 528.094,485.657 529.355,482.79 529.418,482.37 529.363,481.961 529.201,481.542 528.732,480.741 528.621,480.374 
		528.58,479.825 528.4,478.903 528.047,478.135 527.805,477.374 527.953,476.446 528.629,475.749 529.504,475.698 530.484,475.836 
		531.439,475.67 532.393,475.024 535.072,472.42 535.072,472.397 535.107,470.833 535.045,470.073 534.805,469.424 534.498,469.03 
		534.09,468.598 533.242,467.922 532.908,467.809 531.793,467.657 532.148,467.11 532.48,465.905 532.709,465.424 532.795,465.399 
		533.164,465.333 533.293,465.297 534.424,464.264 535.072,463.834 535.641,463.606 536.236,463.489 536.797,463.274 
		537.244,462.752 537.346,462.413 537.244,462.286 537.09,462.206 537.025,462.079 537.09,461.877 537.217,461.723 538.119,461.204 
		538.363,460.911 538.92,459.709 541.043,457.444 541.332,456.989 541.725,455.807 541.918,455.5 542.26,455.286 543.012,455.221 
		543.389,455.12 544.609,454.497 544.965,454.233 545.307,453.772 545.564,453.442 545.004,452.668 544.902,452.299 
		544.957,451.627 544.93,450.356 544.965,449.924 545.156,449.543 545.699,448.87 546.4,448.5 548.75,447.573 549.219,446.825 
		549.004,446.243 548.523,445.922 547.434,445.477 546.58,444.54 546.111,444.26 545.525,444.448 544.842,444.233 544.609,444.219 
		544.383,444.299 543.975,444.614 543.748,444.715 543.213,444.715 542.705,444.551 542.26,444.26 541.865,443.926 541.143,443.012 
		540.674,441.834 539.781,439.61 538.893,437.374 538.004,435.149 537.117,432.926 536.863,432.28 536.748,431.631 536.928,430.997 
		538.285,428.94 538.385,428.518 538.451,428.09 538.551,427.668 538.828,427.276 539.033,427.161 539.607,426.969 539.756,426.868 
		539.773,426.69 539.527,426.04 539.643,425.7 539.975,425.258 540.377,424.885 541.078,424.645 541.357,423.823 541.764,423.795 
		542.26,423.823 542.592,423.553 542.641,423.161 542.145,422.674 541.625,421.94 541.283,421.612 540.035,420.682 539.693,420.342 
		538.5,418.499 538.145,418.167 537.699,417.745 537.557,417.379 537.664,416.971 538.004,416.174 538.043,416.008 537.953,414.245 
		537.979,413.872 538.18,413.583 538.641,413.303 539.809,412.969 540.141,412.782 540.43,412.161 540.561,409.403 540.824,408.995 
		541.244,408.944 541.717,409.049 542.172,409.061 542.299,408.815 542.232,407.827 542.299,407.459 542.426,407.358 
		542.781,407.266 542.934,407.192 543.756,406.239 544.168,405.948 545.525,405.182 545.945,404.803 545.838,404.374 
		545.564,403.94 545.398,403.559 545.371,402.731 545.41,402.315 545.525,401.944 546.045,401.563 546.76,401.387 548.168,401.209 
		548.57,400.776 548.471,400.012 547.963,398.579 547.826,397.842 547.709,397.514 547.494,397.208 546.365,396.473 
		546.094,396.079 545.973,395.389 545.955,394.616 545.885,393.881 545.525,393.348 545.258,392.52 545.236,392.227 
		545.297,391.885 545.398,391.629 545.398,391.391 545.17,391.071 544.037,390.155 543.607,389.534 543.896,389.053 
		544.178,389.026 544.816,389.141 545.051,389.092 545.236,388.86 545.244,388.606 545.209,388.338 545.244,388.051 545.41,387.809 
		545.857,387.323 546.033,387.043 546.225,386.536 546.348,386.006 546.273,385.52 546.514,381.352 546.209,379.676 546.16,378.815 
		546.313,376.288 546.02,373.883 546.02,372.969 546.139,372.489 546.793,371.967 547.014,371.459 547.268,371.053 547.734,371.114 
		547.988,370.518 548.318,370.073 548.738,369.784 550.469,369.323 550.629,369.135 551.115,368.182 550.9,367.94 550.227,367.749 
		550.033,367.559 550.061,367.206 550.252,366.899 550.541,366.659 551.162,366.311 551.469,366.049 551.715,365.731 
		551.877,365.411 552.002,364.995 552.129,364.79 552.336,364.702 	"/>
</g>
<g id="Lakes">
	<path fill="#FFFFFF" d="M707.127,471.784l-0.113-0.24l-0.115-0.24l-0.236-0.115l-0.117-0.24l0.24-0.48l-0.699,0.113l-0.938,0.367
		l-0.814,0.482h-0.682l-0.246,0.113l-0.113,0.24l-0.342,0.127l-0.113,0.246l0.34,0.24l0.342,0.48l0.133,0.127h0.455l0.357,0.113
		h1.039l0.117-0.113l0.35-0.607l-0.234-1.094l0.113-0.115h0.236l0.459,0.723l0.354,1.207l0.229,0.369l0.117-0.127l-0.117-0.596
		V471.784z M610.738,374.139l-0.148-0.201l-0.18-0.168l-0.24-0.332l-0.102-0.047h-0.18l-0.193,0.047l-1.049,0.521l-0.66,0.486
		l-0.115,0.188l-0.074,0.219l-0.066,0.254l0.023,0.289l0.156,0.408l0.035,0.291l-0.008,0.268l-0.053,0.229l0.215,1.002l0.113,0.166
		l0.152,0.113l0.422,0.104l1.027,0.09l0.215-0.152l0.061-0.166l0.334-2.299l0.078-0.152l0.281-0.201l0.135-0.154l0.041-0.193
		l-0.143-0.4L610.738,374.139z M619.414,375.014l-0.047-0.201l-0.014-0.229l0.127-0.418l-0.074-0.182l-0.293-0.328l-0.066-0.205
		l0.039-0.203l-0.039-0.418l0.066-0.203l0.074-0.18l-0.01-0.152l-0.156-0.074l-0.176-0.012l-0.176-0.053l-0.104-0.148l-0.088-0.641
		l0.025-0.43l-0.105-0.178l-0.162-0.063l-0.836-0.152l-0.586-0.381l-0.113-0.027l-0.105,0.027l-0.141,0.1l-0.061,0.191l-0.027,0.242
		l0.027,0.303l-0.035,0.268l0.113,0.344l0.061,0.33l0.102,0.227l0.354,0.268l0.055,0.281l0.012,0.48l0.127,0.787l-0.078,0.227
		l-0.141,0.182l-0.074,0.191l0.064,0.291l0.57,0.773l0.229,0.232l0.992,0.381l0.189-0.014l0.064-0.053l0.088-0.141l-0.039-0.152
		l-0.113-0.24l0.037-0.076l0.102-0.076l0.32-0.09l0.088-0.072l0.025-0.066l-0.014-0.1L619.414,375.014z M589.893,504.088
		l-1.014-1.242l-0.404-0.814l-0.74-2.793l-0.24-0.359l-0.635-0.533l-0.23-0.43l-0.256-0.152l-0.49-0.193h-0.254l-0.131,0.092
		l-0.088,0.014l-0.113-0.254l-0.012-0.385l0.432-1.918l0.469-0.889l-0.039-0.254l0.244-0.762l0.342-3.9l0.279-0.533l-0.051-0.203
		l-0.102-0.064l-0.139-0.027l-0.141-0.074l-0.924-1.129v-0.354l0.646-1.516l0.369-0.48l0.148-0.281l-0.025-0.215l-0.201-0.166
		l-0.473-0.279l-0.176-0.154l-0.367-0.113l-0.547,0.102l-0.535,0.207l-0.342,0.176l-0.279,0.316l-0.115,0.342l-0.166,0.268
		l-0.381,0.113l-0.139,0.105l-0.127,0.227l-0.088,0.254v0.18l0.854,0.314l0.988,0.877l0.168,0.244l0.174,0.035l0.963,0.775
		l0.309,0.854l0.111,1.029l-0.1,0.988l-0.32,0.748l-0.262,0.221l-0.281,0.174l-0.219,0.254l-0.188,0.9l-0.254,0.5l-0.328,0.455
		l-0.32,0.342l-1.576,0.879l-0.508,0.623l0.215,0.889l0.219,0.279l0.141,0.127l0.141,0.049l0.721,0.078l0.162,0.127l0.486,0.242
		l0.023,0.086l-0.035,0.268l0.012,0.102l0.088,0.014l0.268-0.035l0.078,0.021l0.088,0.193l0.166,0.467l0.027,0.18l-0.08,0.18
		l-0.166,0.074l-0.215,0.063l-0.393,0.293l-0.408,0.178l-0.176,0.176l-0.191,0.268l-0.039,0.117l0.23,0.215l0.316,0.254l0.914,0.434
		l0.994,0.775l0.211,0.314l0.139,0.494l-0.047-0.035l-0.102,0.035l-0.088,0.092l-0.053,0.141l0.027,0.137l0.061,0.051l0.053,0.041
		l0.025,0.074l0.01,0.166l0.092,0.342l0.074,0.76l0.127,0.408l0.268,0.648l0.014,0.152l-0.049,0.088l-0.08,0.053l-0.035,0.074
		l0.049,0.141l0.189,0.205l0.039,0.127v0.889l0.166,0.52l0.713,0.65l0.141,0.432l0.402-0.432l1.148-0.65l0.455-0.467l0.326-0.66
		l0.373-1.563l-0.053-0.801L589.893,504.088z M554.047,444.715l-0.127-0.129l-0.074-0.152l-0.117-0.113l-0.176-0.049l-0.215,0.014
		l-0.572,0.127l-0.637,0.014l-0.393-0.053l-0.408-0.102l-1.049-0.561l-0.385-0.039l-0.316,0.24l-0.227,0.348l-0.221,0.215
		l-0.254-0.203l-0.033-0.191l0.047-0.441l-0.074-0.182l-0.271-0.406l-0.949-1.904l0.328-0.113l0.805-0.039l0.148-0.053l0.088-0.316
		l0.219-0.342l0.281-0.279l0.279-0.18l0.49-0.113l0.254-0.102l0.119-0.166l-0.066-0.229l-0.139-0.217l-0.141-0.176l-0.076-0.113
		l-0.205-0.154l-1.383-0.078l-0.648-0.254l-0.281-0.035l-0.199,0.074l-0.154,0.141l-0.152,0.102l-0.582-0.254l-0.994-0.049
		l-0.279-0.168l0.016-0.178l0.215-0.543l0.066-0.246l-0.025-0.24l-0.105-0.42l-0.025-0.215l-0.098-0.494l-0.254-0.307l-0.646-0.469
		l-0.348-0.42l-0.254-0.381l-0.279-0.268l-0.482-0.1l-0.395-0.039l-0.381-0.076l-0.34-0.139l-0.246-0.193l0.131-0.289l0.377,0.088
		l0.205-0.18v-0.24l-0.213-0.115l-0.789-0.037l-0.586,0.064l-0.775-0.027l-0.279-0.762l-0.152-0.139l-0.203-0.127l0.014-0.32
		l0.088-0.342l0.039-0.24l0.027-0.053l0.035-0.1l-0.049-0.088l-0.373-0.066l-0.162-0.047l-0.139-0.08l-0.268-0.406l-0.875-0.635
		l-0.203-0.441l0.379,0.113l0.166-0.18l-0.115-0.268l-0.43-0.127l-0.33,0.141l-0.381,0.279l-0.32,0.154l-0.123-0.193l-0.158-0.734
		l-0.402-0.482l-1.055-0.826l-0.215-0.242l-0.367-0.279l-0.344-0.229l-0.244-0.086l-0.686,0.033l-0.406-0.033l-0.264-0.143
		l-0.053-0.166l-0.066-0.533l-0.039-0.188l-0.139-0.219l-0.508-0.469l-0.516-0.6l-0.309-0.137l-0.393,0.088l-0.219,0.227
		l0.064,0.229l0.281,0.193l0.379,0.076l0.088,0.076l-0.025,0.154l-0.123,0.162l-0.232,0.064l-0.469-0.025l-0.18,0.025l-0.52,0.176
		l-0.193-0.021l-0.148-0.066l-0.127-0.1l-0.152-0.102l-0.219-0.039l-0.859,0.074l-0.385,0.141l-0.113,0.24l0.254,0.193l1.033,0.328
		l0.352,0.051l0.09,0.063l-0.127,0.154l-0.229,0.164l-0.217,0.074l-0.09-0.047l-0.139-0.113l-0.152-0.102l-0.203-0.027l-0.205,0.102
		l-0.354,0.395l-0.229,0.074l-0.459-0.027l-0.242,0.027l-0.152,0.08l-0.189,0.379l0.023,0.33l2.861,4.98l0.088,0.24l0.588,0.168
		l0.141,0.061l0.047,0.166l-0.141,0.061l-0.188-0.014l-0.158-0.074l0.08,0.461l0.727,0.684l-0.367,0.191l-0.439-0.078l-0.516-0.24
		l-0.447-0.295l-0.174-0.201l-0.041-0.061l-0.178-0.193l-0.076-0.127v-0.152l0.041-0.115l0.061-0.113l0.035-0.127l-0.113-0.279
		l-0.236-0.188l-0.246-0.141l-0.113-0.127l-0.127-0.381l-0.295-0.281l-0.34-0.23l-0.242-0.215h-0.139l0.064,0.318l0.162,0.176
		l0.127,0.219l-0.072,0.455l-0.168,0.293l-0.467,0.508l-0.09,0.168l-0.078,0.668l-0.053,0.141l-0.229,0.119l-0.139-0.066
		l-0.141-0.125l-0.229-0.068l-0.34,0.053l-0.219,0.141l-0.115,0.24l-0.025,0.367l0.025,0.359l0.08,0.355l0.139,0.279l0.256,0.115
		l0.262,0.162l-0.096,0.383l-0.373,0.648l0.268,0.316l1.295,0.18l0.436,0.381l0.393-0.168l0.268,0.115l0.148,0.305l0.053,0.408
		l0.166,0.328l0.354-0.014l0.561-0.24l0.736,0.039l0.119-0.113l-0.221-0.359l-0.342-0.254l-0.76-0.227l-0.32-0.254l0.406-1.104
		l0.307-0.42l0.43-0.113l0.268,0.162l0.113,0.473l0.254,0.1l0.127,0.113l0.115,0.268l0.086,0.32l0.045,0.266l0.188,0.609
		l0.459,0.469l0.441,0.113l0.303-0.648l0.246,0.105l0.355,0.314l-0.066,0.166l-0.074,0.076l-0.092,0.014l-0.049,0.037l-0.127,0.039
		l-0.102,0.037l-0.064,0.078v0.1l0.064,0.041l0.066,0.014l0.021-0.014l0.295,0.723l0.801,0.254l1.775,0.078l0.381,0.135l0.688,0.373
		l0.434,0.061l0.734-0.152l0.193,0.025l0.211,0.154l0.025,0.152l-0.008,0.176l0.061,0.254l0.24,0.459l0.092,0.314l-0.131,0.32
		l-1.383,1.396l-0.482,0.621v0.154l0.168,0.227l0.148,0.127l0.219,0.119l0.201,0.061l0.127-0.012l0.955-0.676l0.24,0.053
		l0.176,0.152l0.191,0.063l0.244-0.268l0.115,0.205l0.008,0.166l-0.074,0.127l-0.189,0.102l0.379,0.596l0.445,0.229l0.533,0.105
		l0.648,0.252l0.113,0.127l0.088,0.141l0.133,0.127l0.227,0.061l0.148-0.074l0.088-0.152l0.066-0.152l0.064-0.076l2.018-0.191
		l0.355-0.102l0.293-0.152l0.189-0.215l0.205-0.359l0.066-0.328l-0.254-0.141l-0.461-0.061l0.074-0.154l0.588-0.367l0.219-0.279
		l0.061-0.268l0.027-0.254l0.121-0.24l-0.121-0.295l-0.816-0.621l-0.254-0.393l0.422-0.18l0.008,0.066l0.486,0.379l0.715,0.289
		l0.949,0.535l0.439,0.406l0.182,0.482l0.166,0.293l0.369,0.18l0.76,0.188l1.336,1.156l0.305,0.18l0.063,0.064l-0.113,0.148
		l-0.219,0.154l-0.236,0.078l-0.273-0.012l-0.121-0.066l-0.053-0.1l-0.787-0.736l-0.43-0.307l-0.205,0.115l-0.092,0.238
		l-0.215,0.396l-0.268,0.381l-0.262,0.24l-0.141-0.201l-0.18-0.053l-0.188,0.092l-0.207,0.162l-0.254-0.189l-0.266-0.127
		l-0.254-0.012l-0.246,0.178l0.627,0.521l0.34,0.508l0.102,0.623l-0.049,0.861l-0.072,0.367l-0.133,0.307l-0.176,0.281l-0.752,0.801
		l-0.123,0.252l-0.039,0.443l1.002,1.121l0.307,0.148l0.568,0.141l0.344,0.232l0.611,0.301l1.422,0.127l0.609,0.24l0.141-0.543
		l0.063-0.967l-0.063-0.914l-0.215-0.408l-0.789-0.061l-0.787-0.205l-0.303-0.33l0.67-0.432l0.766-0.217l0.736-0.111l0.402,0.047
		l0.688,0.232l0.355,0.049l0.42-0.154l0.293-0.342l0.242-0.395l0.252-0.305l0.127-0.049l0.443-0.102l0.305-0.23l0.115-0.049
		l-0.176-0.18l-0.18-0.061l-0.18,0.047l-0.174,0.193l-0.422-0.318v-0.154l0.85-0.314l0.307-0.014l0.801,0.406l0.281,0.039
		l0.914-0.117l-0.279-0.275l-0.115-0.18l-0.039-0.193l0.039-0.275l0.102-0.039l0.141-0.014l0.152-0.191l0.113-0.416l-0.078-0.232
		L554.047,444.715z M779.223,471.795h-0.648l-0.232,0.207l0.102,0.467l0.318,0.471l0.621,0.318l0.303,0.268l0.219,0.318
		l-0.053,0.264l-0.123,0.219l0.035,0.215l0.115,0.18l0.121,0.134v-3.205L779.223,471.795z"/>
</g>
<g id="text" display="none">
	<g display="inline">
		<text transform="matrix(1 0 0 1 367.1201 339.8364)" fill="#333333" font-family="'Roboto-Regular'" font-size="10">L</text>
		<text transform="matrix(1 0 0 1 372.6206 339.8364)" fill="#333333" font-family="'Roboto-Regular'" font-size="10">i</text>
		<text transform="matrix(1 0 0 1 375.2402 339.8364)" fill="#333333" font-family="'Roboto-Regular'" font-size="10">m</text>
		<text transform="matrix(1 0 0 1 384.0806 339.8364)" fill="#333333" font-family="'Roboto-Regular'" font-size="10">a</text>
		<g>
			<path fill="#E83D3D" d="M378.394,345.022c-2.748,0-4.977,2.252-5,5.039c0.008,0.979,0.297,1.889,0.789,2.656l3.82,5.346
				c0.109,0.193,0.25,0.291,0.391,0.291l0,0c0.143,0,0.285-0.098,0.391-0.291l3.82-5.344c0.492-0.768,0.781-1.68,0.789-2.658
				C383.372,347.274,381.144,345.022,378.394,345.022z"/>
			<circle fill="#FFFFFF" cx="378.395" cy="350.022" r="2"/>
		</g>
	</g>
	<g id="Layer_8" display="inline">
	</g>
	
		<text transform="matrix(1 0 0 1 407.2734 300.522)" display="inline" fill="#333333" font-family="'Roboto-Medium'" font-size="12">P</text>
	
		<text transform="matrix(1 0 0 1 415.0635 300.522)" display="inline" fill="#333333" font-family="'Roboto-Medium'" font-size="12">e</text>
	
		<text transform="matrix(1 0 0 1 421.5352 300.522)" display="inline" fill="#333333" font-family="'Roboto-Medium'" font-size="12">r</text>
	
		<text transform="matrix(1 0 0 1 425.8086 300.522)" display="inline" fill="#333333" font-family="'Roboto-Medium'" font-size="12">u</text>
</g>
</svg>
